<svg width="40" height="40" viewBox="0 0 40 40" fill="none" xmlns="http://www.w3.org/2000/svg">
<path d="M6.66663 9.99998C6.66663 9.55795 6.84222 9.13403 7.15478 8.82147C7.46734 8.50891 7.89127 8.33331 8.33329 8.33331H31.6666C32.1087 8.33331 32.5326 8.50891 32.8451 8.82147C33.1577 9.13403 33.3333 9.55795 33.3333 9.99998C33.3333 10.442 33.1577 10.8659 32.8451 11.1785C32.5326 11.4911 32.1087 11.6666 31.6666 11.6666H8.33329C7.89127 11.6666 7.46734 11.4911 7.15478 11.1785C6.84222 10.8659 6.66663 10.442 6.66663 9.99998Z" fill="black"/>
<path d="M6.66663 30C6.66663 29.558 6.84222 29.134 7.15478 28.8215C7.46734 28.5089 7.89127 28.3333 8.33329 28.3333H31.6666C32.1087 28.3333 32.5326 28.5089 32.8451 28.8215C33.1577 29.134 33.3333 29.558 33.3333 30C33.3333 30.442 33.1577 30.8659 32.8451 31.1785C32.5326 31.4911 32.1087 31.6666 31.6666 31.6666H8.33329C7.89127 31.6666 7.46734 31.4911 7.15478 31.1785C6.84222 30.8659 6.66663 30.442 6.66663 30Z" fill="black"/>
<path d="M18.3333 18.3333C17.8913 18.3333 17.4673 18.5089 17.1548 18.8215C16.8422 19.134 16.6666 19.558 16.6666 20C16.6666 20.442 16.8422 20.8659 17.1548 21.1785C17.4673 21.4911 17.8913 21.6666 18.3333 21.6666H31.6666C32.1087 21.6666 32.5326 21.4911 32.8451 21.1785C33.1577 20.8659 33.3333 20.442 33.3333 20C33.3333 19.558 33.1577 19.134 32.8451 18.8215C32.5326 18.5089 32.1087 18.3333 31.6666 18.3333H18.3333Z" fill="black"/>
</svg>
