<svg width="601" height="604" viewBox="0 0 601 604" fill="none" xmlns="http://www.w3.org/2000/svg">
<path d="M253.388 426V57.897" stroke="#263238" stroke-linecap="round" stroke-linejoin="round"/>
<path d="M13.4642 429.65H246.283L600 543.514" stroke="#263238" stroke-linecap="round" stroke-linejoin="round"/>
<path d="M119.479 421.009H103.399V155.806H136.593L122.269 104.241H79.2785L64.9539 155.806H98.1482V421.009H82.0187C77.8945 421.013 73.9362 422.629 70.994 425.511C68.0517 428.394 66.3603 432.312 66.283 436.424C66.283 436.424 66.283 436.506 66.283 436.539C66.283 436.539 66.283 436.637 66.283 436.67C66.7589 440.368 81.9859 443.347 100.741 443.347C119.496 443.347 134.723 440.368 135.198 436.67C135.185 432.518 133.525 428.539 130.579 425.605C127.633 422.67 123.643 421.018 119.479 421.009Z" fill="#263238"/>
<path d="M333.757 39.6506V351.918L569.497 390.604V0.964844L333.757 39.6506ZM563.376 129.066L443.595 135.841V27.3444L563.376 8.32887V129.066ZM443.595 147.247L563.376 141.765V250.851L443.595 245.271V147.247ZM433.881 244.812L337.711 240.345V152.091L433.799 147.705L433.881 244.812ZM433.881 28.8827V136.43L337.711 141.814V44.1344L433.881 28.8827ZM337.711 250.622L433.799 256.137V362.686L337.711 347.434V250.622ZM443.513 364.224V256.693L563.294 263.566V383.24L443.513 364.224Z" fill="#263238" stroke="#263238" stroke-linecap="round" stroke-linejoin="round"/>
<path d="M252.453 581.463C356.622 581.463 441.068 555.227 441.068 522.862C441.068 490.497 356.622 464.26 252.453 464.26C148.284 464.26 63.8381 490.497 63.8381 522.862C63.8381 555.227 148.284 581.463 252.453 581.463Z" fill="#5C33F6"/>
<path opacity="0.5" d="M252.453 581.463C356.622 581.463 441.068 555.227 441.068 522.862C441.068 490.497 356.622 464.26 252.453 464.26C148.284 464.26 63.8381 490.497 63.8381 522.862C63.8381 555.227 148.284 581.463 252.453 581.463Z" fill="white"/>
<path d="M236.52 264.466C236.52 264.466 193.776 259.41 165.652 281.289C137.528 303.168 113.342 394.597 113.9 438.388C114.458 482.18 130.784 504.026 171.838 521.962C212.892 539.897 289.372 533.188 332.116 519.72C374.86 506.252 388.922 459.171 388.364 433.904C387.806 408.638 359.682 379.492 350.116 373.356C340.55 367.219 313.558 354.291 300.07 334.081C286.583 313.871 266.876 270.079 236.52 264.466Z" fill="#5C33F6"/>
<path opacity="0.13" d="M339.959 516.692C323.797 514.516 304.632 510.147 290.127 501.359C259.492 482.818 251.846 447.896 240.901 434.804C229.957 421.713 210.267 422.809 201.521 408.621C192.776 394.433 206.985 289.717 181.831 283.171C176.726 281.7 171.441 280.946 166.128 280.929C165.981 281.06 165.8 281.158 165.652 281.289C137.528 303.168 113.342 394.597 113.9 438.388C114.458 482.18 130.784 504.026 171.838 521.962C212.892 539.897 289.372 533.188 332.116 519.72C334.791 518.874 337.41 517.863 339.959 516.692Z" fill="black"/>
<path d="M236.52 264.466C236.52 264.466 193.776 259.41 165.652 281.289C137.528 303.168 113.342 394.597 113.9 438.388C114.458 482.18 130.784 504.026 171.838 521.962C212.892 539.897 289.372 533.188 332.116 519.72C374.86 506.252 388.922 459.171 388.364 433.904C387.806 408.638 359.682 379.492 350.116 373.356C340.55 367.219 313.558 354.291 300.07 334.081C286.583 313.871 266.876 270.079 236.52 264.466Z" stroke="#263238" stroke-linecap="round" stroke-linejoin="round"/>
<path d="M219.685 284.234C219.685 284.234 191.791 289.553 186.868 294.462C181.946 299.372 161.435 376.285 161.435 376.285C167.138 374.9 173.12 375.184 178.664 377.103C186.868 380.376 187.689 388.967 188.509 393.058C189.168 397.944 189.579 402.86 189.74 407.786C189.74 407.786 272.652 400.406 290.291 396.331C307.93 392.257 334.774 390.358 334.774 390.358C334.774 390.358 289.421 288.342 282.448 284.66C275.474 280.978 246.349 280.569 242.247 281.387C238.145 282.205 219.685 284.234 219.685 284.234Z" fill="#263238" stroke="#263238" stroke-linecap="round" stroke-linejoin="round"/>
<path d="M192.201 378.74L199.175 321.873" stroke="white" stroke-linecap="round" stroke-linejoin="round"/>
<path d="M197.534 337.01L206.969 324.737" stroke="white" stroke-linecap="round" stroke-linejoin="round"/>
<path d="M225.839 344.374C225.839 344.374 252.502 335.783 270.141 335.783" stroke="white" stroke-linecap="round" stroke-linejoin="round"/>
<path d="M251.009 320.924L249.22 334.555C249.22 334.555 253.733 334.555 254.143 336.601C254.171 337.359 254.04 338.115 253.757 338.82C253.475 339.525 253.047 340.162 252.502 340.692C252.502 340.692 265.219 347.647 266.86 355.829" stroke="white" stroke-linecap="round" stroke-linejoin="round"/>
<path d="M234.994 268.983C234.994 268.983 219.685 273.892 217.487 277.705C215.288 281.518 216.945 308.258 216.945 311.531C216.945 314.804 218.865 309.616 220.506 305.803C222.147 301.99 227.89 296.246 229.793 296.803C231.696 297.359 232.812 299.519 232.812 303.07C232.812 306.621 237.177 311.531 241.016 314.247C244.856 316.964 248.4 319.713 248.4 319.713C248.4 319.713 256.325 308.258 258.245 305.247C260.165 302.236 259.886 295.984 260.149 293.791C260.411 291.599 265.35 299.797 266.449 297.621C267.549 295.444 263.988 293.53 260.149 287.524C256.309 281.518 257.425 275.25 251.682 270.881C245.939 266.512 239.376 267.87 234.994 268.983Z" fill="white"/>
<path d="M217.487 277.689C216.043 280.242 216.272 292.973 216.601 302.236C220.096 297.752 227.299 289.275 231.467 290.879C236.783 292.924 238.818 307.996 238.818 307.996L235.224 268.983H234.994C234.994 268.983 219.685 273.892 217.487 277.689Z" fill="#5C33F6"/>
<path opacity="0.5" d="M217.487 277.689C216.043 280.242 216.272 292.973 216.601 302.236C220.096 297.752 227.299 289.275 231.467 290.879C236.783 292.924 238.818 307.996 238.818 307.996L235.224 268.983H234.994C234.994 268.983 219.685 273.892 217.487 277.689Z" fill="white"/>
<path d="M234.994 268.983C234.994 268.983 219.685 273.892 217.487 277.705C215.288 281.518 216.945 308.258 216.945 311.531C216.945 314.804 218.865 309.616 220.506 305.803C222.147 301.99 227.89 296.246 229.793 296.803C231.696 297.359 232.812 299.519 232.812 303.07C232.812 306.621 237.177 311.531 241.016 314.247C244.856 316.964 248.4 319.713 248.4 319.713C248.4 319.713 256.325 308.258 258.245 305.247C260.165 302.236 259.886 295.984 260.149 293.791C260.411 291.599 265.35 299.797 266.449 297.621C267.549 295.444 263.988 293.53 260.149 287.524C256.309 281.518 257.425 275.25 251.682 270.881C245.939 266.512 239.376 267.87 234.994 268.983Z" stroke="#263238" stroke-linecap="round" stroke-linejoin="round"/>
<path d="M198.765 379.558C198.765 379.558 189.33 366.057 177.844 364.83C166.358 363.602 152.411 373.012 152.001 376.285C151.59 379.558 148.719 397.15 150.77 399.604C152.821 402.059 160.615 404.105 175.793 399.195C190.971 394.286 197.124 388.149 198.765 379.558Z" fill="white"/>
<path d="M160.385 399.179C160.385 399.179 157.104 389.818 158.744 386.562C160.385 383.305 166.949 378.38 171.002 373.47C175.054 368.561 161.435 376.236 160.779 373.47C160.27 371.245 167.982 366.793 171.018 365.141C161.468 366.973 152.329 373.601 152.001 376.236C151.59 379.509 148.719 397.101 150.77 399.555C151.82 400.815 154.429 401.977 158.777 402.124C159.762 400.439 160.385 399.179 160.385 399.179Z" fill="#5C33F6"/>
<path opacity="0.5" d="M160.385 399.179C160.385 399.179 157.104 389.818 158.744 386.562C160.385 383.305 166.949 378.38 171.002 373.47C175.054 368.561 161.435 376.236 160.779 373.47C160.27 371.245 167.982 366.793 171.018 365.141C161.468 366.973 152.329 373.601 152.001 376.236C151.59 379.509 148.719 397.101 150.77 399.555C151.82 400.815 154.429 401.977 158.777 402.124C159.762 400.439 160.385 399.179 160.385 399.179Z" fill="white"/>
<path d="M198.765 379.558C198.765 379.558 189.33 366.057 177.844 364.83C166.358 363.602 152.411 373.012 152.001 376.285C151.59 379.558 148.719 397.15 150.77 399.604C152.821 402.059 160.615 404.105 175.793 399.195C190.971 394.286 197.124 388.149 198.765 379.558Z" stroke="#263238" stroke-linecap="round" stroke-linejoin="round"/>
<path d="M166.768 383.24C166.768 383.24 151.377 389.328 150.77 401.241C150.425 407.787 161.435 410.651 172.921 410.651C184.407 410.651 200.816 396.332 211.481 390.195C222.147 384.058 246.759 369.739 249.631 368.512C252.502 367.284 262.347 370.557 266.449 371.785C270.359 372.62 274.347 373.032 278.346 373.012C278.346 373.012 284.089 382.013 286.96 382.013C289.831 382.013 280.807 368.512 279.576 365.648C278.346 362.784 258.245 356.238 255.784 356.238C253.323 356.238 195.893 370.557 187.279 373.83C178.664 377.103 166.768 383.24 166.768 383.24Z" fill="white"/>
<path d="M198.945 381.538C222.393 369.837 255.784 356.238 255.784 356.238C253.323 356.238 195.893 370.557 187.279 373.83C178.664 377.103 166.768 383.24 166.768 383.24C166.768 383.24 151.377 389.328 150.77 401.241C150.425 407.787 161.435 410.651 172.921 410.651C184.407 410.651 200.816 396.332 211.481 390.195L217.946 386.464C202.276 388.444 181.322 390.309 198.945 381.538Z" fill="#5C33F6"/>
<path opacity="0.5" d="M198.945 381.538C222.393 369.837 255.784 356.238 255.784 356.238C253.323 356.238 195.893 370.557 187.279 373.83C178.664 377.103 166.768 383.24 166.768 383.24C166.768 383.24 151.377 389.328 150.77 401.241C150.425 407.787 161.435 410.651 172.921 410.651C184.407 410.651 200.816 396.332 211.481 390.195L217.946 386.464C202.276 388.444 181.322 390.309 198.945 381.538Z" fill="white"/>
<path d="M166.768 383.24C166.768 383.24 151.377 389.328 150.77 401.241C150.425 407.787 161.435 410.651 172.921 410.651C184.407 410.651 200.816 396.332 211.481 390.195C222.147 384.058 246.759 369.739 249.631 368.512C252.502 367.284 262.347 370.557 266.449 371.785C270.359 372.62 274.347 373.032 278.346 373.012C278.346 373.012 284.089 382.013 286.96 382.013C289.831 382.013 280.807 368.512 279.576 365.648C278.346 362.784 258.245 356.238 255.784 356.238C253.323 356.238 195.893 370.557 187.279 373.83C178.664 377.103 166.768 383.24 166.768 383.24Z" stroke="#263238" stroke-linecap="round" stroke-linejoin="round"/>
<path d="M286.747 292.253L274.243 362.375L364.49 362.784L377.912 296.279C378.023 295.692 378.006 295.088 377.862 294.508C377.717 293.929 377.449 293.387 377.075 292.921C376.701 292.455 376.23 292.074 375.695 291.807C375.159 291.539 374.572 291.39 373.974 291.369L290.947 288.882C289.958 288.85 288.991 289.172 288.22 289.791C287.449 290.409 286.927 291.283 286.747 292.253Z" fill="white" stroke="#263238" stroke-linecap="round" stroke-linejoin="round"/>
<path d="M274.243 362.375L230.302 393.369L330.803 390.506L364.49 362.784L274.243 362.375Z" fill="white"/>
<path d="M274.243 362.375L230.302 393.369L330.803 390.506L364.49 362.784L274.243 362.375Z" fill="#5C33F6"/>
<path opacity="0.5" d="M274.243 362.375L230.302 393.369L330.803 390.506L364.49 362.784L274.243 362.375Z" fill="white"/>
<path d="M274.243 362.375L230.302 393.369L330.803 390.506L364.49 362.784L274.243 362.375Z" stroke="#263238" stroke-linecap="round" stroke-linejoin="round"/>
<path d="M307.47 393.059C307.47 393.059 343.569 361.557 379.257 350.92C414.946 340.283 422.329 341.919 421.509 357.875C420.689 373.83 403.46 457.289 391.974 478.563C380.488 499.837 366.131 538.703 366.541 546.067C366.951 553.431 380.898 575.114 393.204 582.887C405.511 590.66 404.28 600.07 396.486 601.706C388.692 603.342 379.668 606.206 353.004 589.024C326.34 571.841 315.264 547.294 316.905 541.157C318.546 535.021 335.775 526.838 342.749 514.565C349.722 502.292 361.208 456.471 362.028 435.606C362.695 422.434 365.464 409.452 370.233 397.15C370.233 397.15 325.11 405.332 311.983 413.514L307.47 393.059Z" fill="white"/>
<path d="M307.47 393.059C307.47 393.059 343.569 361.557 379.257 350.92C414.946 340.283 422.329 341.919 421.509 357.875C420.689 373.83 403.46 457.289 391.974 478.563C380.488 499.837 366.131 538.703 366.541 546.067C366.951 553.431 380.898 575.114 393.204 582.887C405.511 590.66 404.28 600.07 396.486 601.706C388.692 603.342 379.668 606.206 353.004 589.024C326.34 571.841 315.264 547.294 316.905 541.157C318.546 535.021 335.775 526.838 342.749 514.565C349.722 502.292 361.208 456.471 362.028 435.606C362.695 422.434 365.464 409.452 370.233 397.15C370.233 397.15 325.11 405.332 311.983 413.514L307.47 393.059Z" fill="#5C33F6"/>
<path opacity="0.5" d="M307.47 393.059C307.47 393.059 343.569 361.557 379.257 350.92C414.946 340.283 422.329 341.919 421.509 357.875C420.689 373.83 403.46 457.289 391.974 478.563C380.488 499.837 366.131 538.703 366.541 546.067C366.951 553.431 380.898 575.114 393.204 582.887C405.511 590.66 404.28 600.07 396.486 601.706C388.692 603.342 379.668 606.206 353.004 589.024C326.34 571.841 315.264 547.294 316.905 541.157C318.546 535.021 335.775 526.838 342.749 514.565C349.722 502.292 361.208 456.471 362.028 435.606C362.695 422.434 365.464 409.452 370.233 397.15C370.233 397.15 325.11 405.332 311.983 413.514L307.47 393.059Z" fill="white"/>
<path d="M307.47 393.059C307.47 393.059 343.569 361.557 379.257 350.92C414.946 340.283 422.329 341.919 421.509 357.875C420.689 373.83 403.46 457.289 391.974 478.563C380.488 499.837 366.131 538.703 366.541 546.067C366.951 553.431 380.898 575.114 393.204 582.887C405.511 590.66 404.28 600.07 396.486 601.706C388.692 603.342 379.668 606.206 353.004 589.024C326.34 571.841 315.264 547.294 316.905 541.157C318.546 535.021 335.775 526.838 342.749 514.565C349.722 502.292 361.208 456.471 362.028 435.606C362.695 422.434 365.464 409.452 370.233 397.15C370.233 397.15 325.11 405.332 311.983 413.514L307.47 393.059Z" stroke="#263238" stroke-linecap="round" stroke-linejoin="round"/>
<path d="M342.749 514.565C342.224 515.481 341.633 516.365 341.009 517.249C349.495 518.046 357.538 521.389 364.08 526.838C366.046 528.542 367.92 530.35 369.691 532.255C375.647 513.785 383.099 495.828 391.974 478.563C403.46 457.289 420.689 373.83 421.509 357.875C422.329 341.919 414.946 340.283 379.257 350.92C343.569 361.557 307.47 393.059 307.47 393.059L311.983 413.514C325.11 405.332 370.233 397.15 370.233 397.15C365.464 409.452 362.695 422.434 362.028 435.606C361.208 456.471 349.722 502.292 342.749 514.565Z" fill="white" stroke="#263238" stroke-linecap="round" stroke-linejoin="round"/>
<path d="M342.749 514.565C342.224 515.481 341.633 516.365 341.009 517.249C349.495 518.046 357.538 521.389 364.08 526.838C366.046 528.542 367.92 530.35 369.691 532.255C377.551 521.716 386.395 488.48 396.371 474.799C422.149 439.468 420.689 373.83 421.509 357.875C422.329 341.919 414.946 340.283 379.257 350.92C343.569 361.557 307.47 393.059 307.47 393.059L311.983 413.514C325.11 405.332 370.233 397.15 370.233 397.15C365.464 409.452 362.695 422.434 362.028 435.606C361.208 456.471 349.722 502.292 342.749 514.565Z" fill="#263238"/>
<path opacity="0.53" d="M342.749 514.565C342.224 515.481 341.633 516.365 341.009 517.249C349.495 518.046 357.538 521.389 364.08 526.838C366.046 528.542 367.92 530.35 369.691 532.255C377.551 521.716 386.395 488.48 396.371 474.799C422.149 439.468 420.689 373.83 421.509 357.875C422.329 341.919 414.946 340.283 379.257 350.92C343.569 361.557 307.47 393.059 307.47 393.059L311.983 413.514C325.11 405.332 370.233 397.15 370.233 397.15C365.464 409.452 362.695 422.434 362.028 435.606C361.208 456.471 349.722 502.292 342.749 514.565Z" fill="white"/>
<path opacity="0.14" d="M404.165 355.714C403.525 349.905 340.074 376.694 313.312 388.247C309.604 391.193 307.47 393.058 307.47 393.058L311.983 413.514C325.11 405.332 370.233 397.149 370.233 397.149C365.464 409.451 362.695 422.434 362.028 435.606C361.208 456.471 349.722 502.291 342.749 514.565C342.224 515.481 341.633 516.365 341.009 517.249C345.527 517.732 349.95 518.873 354.136 520.636C363.965 499.722 374.548 475.388 379.553 456.356C388.577 421.991 404.986 363.078 404.165 355.714Z" fill="black"/>
<path d="M370.233 397.15C370.233 397.15 382.539 372.194 393.204 361.966" stroke="#263238" stroke-linecap="round" stroke-linejoin="round"/>
<path d="M342.749 514.565C342.224 515.481 341.633 516.365 341.009 517.249C349.495 518.046 357.538 521.389 364.08 526.838C366.046 528.542 367.92 530.35 369.691 532.255C377.551 521.716 386.395 488.48 396.371 474.799C422.149 439.468 420.689 373.83 421.509 357.875C422.329 341.919 414.946 340.283 379.257 350.92C343.569 361.557 307.47 393.059 307.47 393.059L311.983 413.514C325.11 405.332 370.233 397.15 370.233 397.15C365.464 409.452 362.695 422.434 362.028 435.606C361.208 456.471 349.722 502.292 342.749 514.565Z" stroke="#263238" stroke-linecap="round" stroke-linejoin="round"/>
<path d="M253.388 426.082C266.602 425.481 279.665 423.029 292.194 418.8C310.752 412.058 277 399.719 264.07 406.461C260.457 408.208 257.484 411.041 255.568 414.56C253.652 418.079 252.89 422.109 253.388 426.082Z" fill="#263238" stroke="#263238" stroke-linecap="round" stroke-linejoin="round"/>
<path d="M199.995 399.604C199.995 399.604 186.868 406.968 182.356 415.151C177.844 423.333 197.255 436.965 217.766 436.146C238.276 435.328 275.884 413.105 275.884 413.105C275.884 413.105 276.294 449.107 283.268 462.199C290.242 475.29 322.238 507.201 334.955 515.383C347.671 523.566 390.333 554.249 396.896 559.158C403.46 564.068 415.766 573.068 418.638 573.477C421.509 573.886 451.454 537.475 458.428 525.202C465.402 512.929 471.555 487.155 469.094 481.427C466.632 475.699 461.71 480.609 456.787 484.7C451.865 488.791 406.742 518.656 402.639 520.702C400.399 521.849 398.067 522.807 395.666 523.566C395.666 523.566 358.747 488.382 339.057 461.38C319.367 434.379 317.726 399.604 310.342 386.513C302.958 373.421 292.293 367.694 276.294 369.33C260.296 370.966 227.069 379.558 199.995 399.604Z" fill="white"/>
<path d="M373.564 542.27C384.525 550.092 394.058 556.998 396.896 559.125C403.46 564.035 415.766 573.035 418.638 573.444C419.655 573.592 424.085 569.092 429.68 562.693L382.703 532.55L373.564 542.27Z" fill="#5C33F6"/>
<path opacity="0.5" d="M373.564 542.27C384.525 550.092 394.058 556.998 396.896 559.125C403.46 564.035 415.766 573.035 418.638 573.444C419.655 573.592 424.085 569.092 429.68 562.693L382.703 532.55L373.564 542.27Z" fill="white"/>
<path d="M199.995 399.604C199.995 399.604 186.868 406.968 182.356 415.151C177.844 423.333 197.255 436.965 217.766 436.146C238.276 435.328 275.884 413.105 275.884 413.105C275.884 413.105 276.294 449.107 283.268 462.199C290.242 475.29 322.238 507.201 334.955 515.383C347.671 523.566 390.333 554.249 396.896 559.158C403.46 564.068 415.766 573.068 418.638 573.477C421.509 573.886 451.455 537.475 458.428 525.202C465.402 512.929 471.555 487.155 469.094 481.427C466.632 475.699 461.71 480.609 456.787 484.7C451.865 488.791 406.742 518.656 402.639 520.702C400.399 521.849 398.067 522.807 395.666 523.566C395.666 523.566 358.747 488.382 339.057 461.38C319.367 434.379 317.726 399.604 310.342 386.513C302.958 373.421 292.293 367.694 276.294 369.33C260.296 370.966 227.069 379.558 199.995 399.604Z" stroke="#263238" stroke-linecap="round" stroke-linejoin="round"/>
<path d="M393.122 521.111C384.442 512.667 351.905 469.121 339.057 444.083C320.236 407.394 318.202 394.891 310.818 381.8C303.434 368.708 292.293 367.694 276.36 369.33C260.428 370.966 231.729 373.928 196.615 393.795C196.615 393.795 181.848 401.781 177.352 409.963C172.856 418.145 189.281 438.748 217.831 436.146C238.276 434.281 275.95 413.105 275.95 413.105C275.95 413.105 276.36 449.107 283.334 462.199C290.307 475.29 322.304 507.201 335.02 515.383C343.077 520.571 363.177 534.808 378.486 545.772C382.26 532.075 389.037 524.58 393.122 521.111Z" fill="#263238"/>
<path opacity="0.53" d="M393.122 521.111C384.442 512.667 351.905 469.121 339.057 444.083C320.236 407.394 318.202 394.891 310.818 381.8C303.434 368.708 292.293 367.694 276.36 369.33C260.428 370.966 231.729 373.928 196.615 393.795C196.615 393.795 181.848 401.781 177.352 409.963C172.856 418.145 189.281 438.748 217.831 436.146C238.276 434.281 275.95 413.105 275.95 413.105C275.95 413.105 276.36 449.107 283.334 462.199C290.307 475.29 322.304 507.201 335.02 515.383C343.077 520.571 363.177 534.808 378.486 545.772C382.26 532.075 389.037 524.58 393.122 521.111Z" fill="white"/>
<path opacity="0.14" d="M310.637 462.902C298.331 431.81 305.715 369.625 271.257 377.807C246.152 383.763 200.126 404.939 177.007 415.985C179.747 425.378 194.843 438.241 217.765 436.146C238.21 434.281 275.884 413.105 275.884 413.105C275.884 413.105 276.294 449.107 283.268 462.199C290.242 475.29 322.238 507.201 334.955 515.383C343.011 520.571 363.111 534.808 378.42 545.772C379.738 540.982 381.663 536.38 384.147 532.075C353.594 509.541 317.512 480.265 310.637 462.902Z" fill="black"/>
<path d="M275.884 413.105L274.654 391.831" stroke="#263238" stroke-linecap="round" stroke-linejoin="round"/>
<path d="M393.122 521.111C384.442 512.667 351.905 469.121 339.057 444.083C320.236 407.394 318.202 394.891 310.818 381.8C303.434 368.708 292.293 367.694 276.36 369.33C260.428 370.966 231.729 373.928 196.615 393.795C196.615 393.795 181.848 401.781 177.352 409.963C172.856 418.145 189.281 438.748 217.831 436.146C238.276 434.281 275.95 413.105 275.95 413.105C275.95 413.105 276.36 449.107 283.334 462.199C290.307 475.29 322.304 507.201 335.02 515.383C343.077 520.571 363.177 534.808 378.486 545.772C382.26 532.075 389.037 524.58 393.122 521.111Z" stroke="#263238" stroke-linecap="round" stroke-linejoin="round"/>
<path d="M396.896 559.158C403.46 564.068 415.766 573.068 418.638 573.477C421.509 573.886 451.454 537.475 458.428 525.202C465.402 512.929 471.555 487.154 469.093 481.427C466.632 475.699 461.71 480.609 456.787 484.7C451.865 488.791 406.741 518.656 402.639 520.702C401.556 521.242 400.572 521.683 399.702 522.06C398.521 524.302 397.077 527.771 398.061 530.111C399.702 533.793 406.676 538.703 406.676 538.703L394.255 557.26L396.896 559.158Z" fill="#263238" stroke="#263238" stroke-linecap="round" stroke-linejoin="round"/>
<path d="M458.428 525.202C465.402 512.929 471.555 487.154 469.093 481.427C467.666 478.154 465.418 478.367 462.809 479.97C464.532 487.613 462.809 502.357 454.326 518.247C446.762 532.419 423.396 557.522 411.664 569.664C413.801 571.268 416.162 572.552 418.67 573.477C421.509 573.886 451.454 537.475 458.428 525.202Z" fill="white"/>
<path d="M419.048 573.363L419.409 573.183L419.507 573.101C419.706 572.988 419.892 572.857 420.065 572.708L420.262 572.545L420.738 572.152L421 571.906L421.64 571.317L422.034 570.941L422.576 570.417L423.035 569.959L423.494 569.501L424.659 568.274L424.856 568.077L425.578 567.292L425.874 566.981C426.727 566.048 427.646 565.033 428.598 563.953V563.871L429.615 562.726L422.444 558.128C418.375 562.546 414.585 566.539 411.566 569.664L412.665 570.384L412.829 570.483L413.846 571.121L415.487 572.054L415.947 572.315L416.406 572.561L416.931 572.823L417.276 572.986C417.44 573.068 417.61 573.139 417.784 573.199L418.03 573.297C418.22 573.376 418.418 573.431 418.621 573.461C418.723 573.487 418.831 573.487 418.933 573.461L419.048 573.363Z" fill="#5C33F6"/>
<path opacity="0.5" d="M419.048 573.363L419.409 573.183L419.507 573.101C419.706 572.988 419.892 572.857 420.065 572.708L420.262 572.545L420.738 572.152L421 571.906L421.64 571.317L422.034 570.941L422.576 570.417L423.035 569.959L423.494 569.501L424.659 568.274L424.856 568.077L425.578 567.292L425.874 566.981C426.727 566.048 427.646 565.033 428.598 563.953V563.871L429.615 562.726L422.444 558.128C418.375 562.546 414.585 566.539 411.566 569.664L412.665 570.384L412.829 570.483L413.846 571.121L415.487 572.054L415.947 572.315L416.406 572.561L416.931 572.823L417.276 572.986C417.44 573.068 417.61 573.139 417.784 573.199L418.03 573.297C418.22 573.376 418.418 573.431 418.621 573.461C418.723 573.487 418.831 573.487 418.933 573.461L419.048 573.363Z" fill="white"/>
<path d="M458.428 525.202C465.402 512.929 471.555 487.154 469.093 481.427C467.666 478.154 465.418 478.367 462.809 479.97C464.532 487.613 462.809 502.357 454.326 518.247C446.762 532.419 423.396 557.522 411.664 569.664C413.801 571.268 416.162 572.552 418.67 573.477C421.509 573.886 451.454 537.475 458.428 525.202Z" stroke="#263238" stroke-linecap="round" stroke-linejoin="round"/>
<path d="M393.204 582.887C380.898 575.114 366.951 553.431 366.541 546.067C366.522 545.26 366.588 544.454 366.738 543.661C364.288 543.739 361.923 544.58 359.977 546.067C354.927 541.497 349.583 537.26 343.979 533.384C339.467 530.792 334.41 529.285 329.212 528.982C323.255 533.892 317.726 537.819 316.856 541.157C315.215 547.294 326.291 571.841 352.955 589.024C379.618 606.206 388.643 603.342 396.437 601.706C404.231 600.07 405.511 590.66 393.204 582.887Z" fill="#263238" stroke="#263238" stroke-linecap="round" stroke-linejoin="round"/>
<path d="M393.205 582.887C389.127 580.13 385.45 576.826 382.276 573.068C373.81 569.468 362.504 564.886 352.594 558.733C341.928 552.187 344.389 548.096 338.236 541.959C333.511 537.246 324.223 536.641 320.187 536.608C318.73 537.821 317.602 539.38 316.905 541.141C315.265 547.278 326.34 571.825 353.004 589.007C379.668 606.19 388.692 603.326 396.486 601.69C404.28 600.053 405.511 590.66 393.205 582.887Z" fill="white"/>
<path d="M393.205 582.887C389.127 580.13 385.45 576.826 382.276 573.068C373.81 569.468 362.504 564.886 352.594 558.733C341.928 552.187 344.389 548.096 338.236 541.959C333.511 537.246 324.223 536.641 320.187 536.608C318.73 537.821 317.602 539.38 316.905 541.141C315.265 547.278 326.34 571.825 353.004 589.007C379.668 606.19 388.692 603.326 396.486 601.69C404.28 600.053 405.511 590.66 393.205 582.887Z" fill="#5C33F6"/>
<path opacity="0.5" d="M393.205 582.887C389.127 580.13 385.45 576.826 382.276 573.068C373.81 569.468 362.504 564.886 352.594 558.733C341.928 552.187 344.389 548.096 338.236 541.959C333.511 537.246 324.223 536.641 320.187 536.608C318.73 537.821 317.602 539.38 316.905 541.141C315.265 547.278 326.34 571.825 353.004 589.007C379.668 606.19 388.692 603.326 396.486 601.69C404.28 600.053 405.511 590.66 393.205 582.887Z" fill="white"/>
<path d="M393.205 582.887C389.127 580.13 385.45 576.826 382.276 573.068C373.81 569.468 362.504 564.886 352.594 558.733C341.928 552.187 344.389 548.096 338.236 541.959C333.511 537.246 324.223 536.641 320.187 536.608C318.73 537.821 317.602 539.38 316.905 541.141C315.265 547.278 326.34 571.825 353.004 589.007C379.668 606.19 388.692 603.326 396.486 601.69C404.28 600.053 405.511 590.66 393.205 582.887Z" stroke="#263238" stroke-linecap="round" stroke-linejoin="round"/>
<path d="M395.255 585.751C384.59 579.614 362.849 575.523 348.902 566.113C334.955 556.704 338.646 548.521 328.391 541.976C326.753 540.754 324.79 540.04 322.747 539.924C320.705 539.808 318.673 540.293 316.905 541.321C315.478 547.703 326.586 571.972 353.004 589.024C379.421 606.075 388.692 603.343 396.486 601.706C401.671 600.61 403.919 596.093 401.245 590.905C399.571 588.846 397.543 587.101 395.255 585.751Z" fill="#263238"/>
<path opacity="0.53" d="M395.255 585.751C384.59 579.614 362.849 575.523 348.902 566.113C334.955 556.704 338.646 548.521 328.391 541.976C326.753 540.754 324.79 540.04 322.747 539.924C320.705 539.808 318.673 540.293 316.905 541.321C315.478 547.703 326.586 571.972 353.004 589.024C379.421 606.075 388.692 603.343 396.486 601.706C401.671 600.61 403.919 596.093 401.245 590.905C399.571 588.846 397.543 587.101 395.255 585.751Z" fill="white"/>
<path d="M395.255 585.751C384.59 579.614 362.849 575.523 348.902 566.113C334.955 556.704 338.646 548.521 328.391 541.976C326.753 540.754 324.79 540.04 322.747 539.924C320.705 539.808 318.673 540.293 316.905 541.321C315.478 547.703 326.586 571.972 353.004 589.024C379.421 606.075 388.692 603.343 396.486 601.706C401.671 600.61 403.919 596.093 401.245 590.905C399.571 588.846 397.543 587.101 395.255 585.751V585.751Z" stroke="#263238" stroke-linecap="round" stroke-linejoin="round"/>
<path d="M190.839 507.495C190.839 507.495 198.715 497.955 199.831 505.254C200.947 512.552 199.273 526.004 193.645 531.044C188.017 536.084 185.211 528.246 185.211 528.246L188.591 523.762C188.591 523.762 191.397 529.375 193.645 520.391C195.893 511.407 189.149 512.536 189.149 512.536L190.839 507.495Z" fill="white" stroke="#263238" stroke-linecap="round" stroke-linejoin="round"/>
<path d="M184.817 543.399C180.157 546.836 164.963 546.836 160.32 543.399C150.475 536.117 152.115 500.933 152.115 500.933H192.907C192.907 500.933 194.679 536.117 184.817 543.399Z" fill="white" stroke="#263238" stroke-linecap="round" stroke-linejoin="round"/>
<path d="M156.579 494.028C156.579 489.609 160.697 489.609 160.697 485.174C160.697 480.74 156.579 480.74 156.579 476.321C156.579 471.903 160.697 471.886 160.697 467.452C160.697 463.017 156.579 463.017 156.579 458.582C156.579 454.147 160.697 454.147 160.697 449.713" stroke="#263238" stroke-linecap="round" stroke-linejoin="round"/>
<path d="M170.673 494.028C170.673 490.755 174.792 490.755 174.792 487.302C174.792 483.849 170.673 483.947 170.673 480.576C170.673 477.205 174.792 477.221 174.792 473.85C174.792 470.479 170.673 470.479 170.673 467.108C170.673 463.737 174.792 463.753 174.792 460.382" stroke="#263238" stroke-linecap="round" stroke-linejoin="round"/>
<path d="M186.179 494.028C186.179 489.609 190.281 489.609 190.281 485.174C190.281 480.74 186.179 480.74 186.179 476.321C186.179 471.903 190.281 471.886 190.281 467.452C190.281 463.017 186.179 463.017 186.179 458.582C186.179 454.147 190.281 454.147 190.281 449.713" stroke="#263238" stroke-linecap="round" stroke-linejoin="round"/>
<path d="M192.94 500.933C192.94 501.964 183.817 502.783 172.544 502.783C161.271 502.783 152.148 501.964 152.148 500.933C152.148 499.902 161.271 499.084 172.544 499.084C183.817 499.084 192.94 499.902 192.94 500.933Z" fill="white" stroke="#263238" stroke-linecap="round" stroke-linejoin="round"/>
<path d="M230.597 247.709C230.597 247.709 232.517 268.377 233.321 274.907C234.125 281.436 235.946 300.19 237.833 306.392C239.72 312.594 250.008 323.378 250.96 320.891C251.912 318.404 257.031 301.532 254.996 291.435C252.962 281.338 252.338 272.714 253.602 270.161C254.865 267.608 259.41 264.744 259.41 264.744C254.116 262.04 248.973 259.052 244.003 255.793C236.75 250.982 231.614 245.532 230.597 247.709Z" fill="white"/>
<path d="M256.932 265.857L255.292 262.682C252.272 261.046 248.072 258.624 244.085 255.957C236.783 251.047 231.647 245.532 230.63 247.774C230.63 247.774 232.55 268.443 233.354 274.972C234.158 281.502 235.979 300.255 237.866 306.458C238.51 308.271 239.398 309.989 240.508 311.563C238.522 299.224 240.672 276.936 240.672 276.936L256.932 265.857Z" fill="#5C33F6"/>
<path opacity="0.5" d="M256.932 265.857L255.292 262.682C252.272 261.046 248.072 258.624 244.085 255.957C236.783 251.047 231.647 245.532 230.63 247.774C230.63 247.774 232.55 268.443 233.354 274.972C234.158 281.502 235.979 300.255 237.866 306.458C238.51 308.271 239.398 309.989 240.508 311.563C238.522 299.224 240.672 276.936 240.672 276.936L256.932 265.857Z" fill="white"/>
<path d="M230.597 247.709C230.597 247.709 232.517 268.377 233.321 274.907C234.125 281.436 235.946 300.19 237.833 306.392C239.72 312.594 250.008 323.378 250.96 320.891C251.912 318.404 257.031 301.532 254.996 291.435C252.962 281.338 252.338 272.714 253.602 270.161C254.865 267.608 259.41 264.744 259.41 264.744C254.116 262.04 248.973 259.052 244.003 255.793C236.75 250.982 231.614 245.532 230.597 247.709Z" stroke="#263238" stroke-linecap="round" stroke-linejoin="round"/>
<path d="M229.842 250.704C229.842 250.704 241.656 260.522 250.714 264.122C259.771 267.723 273.685 267.494 275.671 262.797C277.656 258.1 272.225 220.904 267.549 211.118C262.872 201.332 257.884 201.168 249.631 200.415C241.377 199.663 224.87 206.372 221.966 214.325C219.062 222.278 222.376 233.537 224.772 240.214C226.039 243.899 227.741 247.42 229.842 250.704Z" fill="white"/>
<path d="M251.058 250.262C246.874 237.89 245.824 218.416 245.824 213.229C245.824 209.22 256.293 204.818 261.067 203.017C257.933 201.086 254.291 200.841 249.582 200.416C241.377 199.679 224.821 206.372 221.917 214.325C219.013 222.278 222.327 233.537 224.723 240.214C225.99 243.899 227.692 247.42 229.793 250.704C229.793 250.704 241.607 260.522 250.664 264.123C256.942 266.492 263.74 267.141 270.355 266.004C263.873 263.566 253.848 258.526 251.058 250.262Z" fill="#5C33F6"/>
<path opacity="0.5" d="M251.058 250.262C246.874 237.89 245.824 218.416 245.824 213.229C245.824 209.22 256.293 204.818 261.067 203.017C257.933 201.086 254.291 200.841 249.582 200.416C241.377 199.679 224.821 206.372 221.917 214.325C219.013 222.278 222.327 233.537 224.723 240.214C225.99 243.899 227.692 247.42 229.793 250.704C229.793 250.704 241.607 260.522 250.664 264.123C256.942 266.492 263.74 267.141 270.355 266.004C263.873 263.566 253.848 258.526 251.058 250.262Z" fill="white"/>
<path d="M229.842 250.704C229.842 250.704 241.656 260.522 250.714 264.122C259.771 267.723 273.685 267.494 275.671 262.797C277.656 258.1 272.225 220.904 267.549 211.118C262.872 201.332 257.884 201.168 249.631 200.415C241.377 199.663 224.87 206.372 221.966 214.325C219.062 222.278 222.376 233.537 224.772 240.214C226.039 243.899 227.741 247.42 229.842 250.704V250.704Z" stroke="#263238" stroke-linecap="round" stroke-linejoin="round"/>
<path d="M268.435 226.435C268.632 231.148 265.662 235.092 261.871 235.239C258.081 235.386 254.766 231.704 254.586 227.057C254.405 222.409 257.359 218.4 261.149 218.236C264.94 218.073 268.254 221.673 268.435 226.435Z" stroke="#263238" stroke-linecap="round" stroke-linejoin="round"/>
<path d="M277.722 224.602C277.919 229.315 276.393 233.194 274.325 233.275C272.258 233.357 270.42 229.61 270.24 224.897C270.059 220.184 271.585 216.289 273.653 216.207C275.72 216.125 277.542 219.889 277.722 224.602Z" stroke="#263238" stroke-linecap="round" stroke-linejoin="round"/>
<path d="M268.927 224.7C268.927 224.7 282.48 227.27 281.168 230.526C279.855 233.783 270.699 237.301 270.699 237.301" fill="white"/>
<path d="M268.927 224.7C268.927 224.7 282.48 227.27 281.168 230.526C279.855 233.783 270.699 237.301 270.699 237.301" stroke="#263238" stroke-linecap="round" stroke-linejoin="round"/>
<path d="M268.09 223.162C268.09 223.162 268.287 221.526 270.371 222.557" stroke="#263238" stroke-linecap="round" stroke-linejoin="round"/>
<path d="M254.16 227.711L229.514 237.383" stroke="#263238" stroke-linecap="round" stroke-linejoin="round"/>
<path d="M254.488 219.758C255.006 218.588 255.874 217.606 256.971 216.945C258.069 216.283 259.345 215.974 260.624 216.06" stroke="#263238" stroke-width="2" stroke-linecap="round" stroke-linejoin="round"/>
<path d="M270.896 216.175L267.106 217.598" stroke="#263238" stroke-width="2" stroke-linecap="round" stroke-linejoin="round"/>
<path d="M259.18 243.618C259.18 243.618 264.103 242.341 266.892 245.254" stroke="#263238" stroke-linecap="round" stroke-linejoin="round"/>
<path d="M262.347 227.286C262.577 228.922 262.347 230.33 261.675 230.412C261.002 230.493 260.411 229.233 260.181 227.581C259.952 225.928 260.263 224.553 260.871 224.471C261.478 224.389 262.134 225.65 262.347 227.286Z" fill="#263238"/>
<path d="M231.811 237.448C231.811 237.448 230.17 240.721 234.798 240.885C239.425 241.049 242.575 238.807 240.327 235.976C238.079 233.144 234.748 230.493 238.178 226.795C241.607 223.097 248.269 219.987 244.528 215.864C240.787 211.74 227.02 215.487 230.466 212.149C233.912 208.81 249.828 205.325 256.982 205.767C264.136 206.208 277.492 200.677 280.429 193.444C283.367 186.211 279.265 172.841 269.649 173.561C260.034 174.281 252.863 182.774 248.597 183.38C244.331 183.985 235.585 179.256 228.251 183.38C220.916 187.504 220.67 199.352 220.046 200.808C219.423 202.265 209.479 204.425 207.724 214.456C207.065 218.5 207.346 222.642 208.547 226.56C209.747 230.479 211.835 234.07 214.648 237.056C218.767 241.523 220.621 243.225 220.621 243.225L231.811 237.448Z" fill="#263238" stroke="#263238" stroke-linecap="round" stroke-linejoin="round"/>
<path d="M210.94 219.316C210.854 220.839 211.219 222.353 211.99 223.669" stroke="white" stroke-width="0.75" stroke-linecap="round" stroke-linejoin="round"/>
<path d="M252.765 193.411C252.765 193.411 249.188 185.606 258.311 185.606C267.434 185.606 268.747 197.061 259.295 201.217C249.844 205.374 229.284 206.421 218.192 211.314C216.015 212.164 214.078 213.529 212.548 215.291" stroke="white" stroke-width="0.75" stroke-linecap="round" stroke-linejoin="round"/>
<path d="M236.241 221.133C232.96 222.311 228.71 223.948 224.395 225.944C215.255 230.182 217.208 234.404 217.208 234.404" stroke="white" stroke-width="0.75" stroke-linecap="round" stroke-linejoin="round"/>
<path d="M242.329 219.12C242.329 219.12 241.525 219.349 240.163 219.791" stroke="white" stroke-width="0.75" stroke-linecap="round" stroke-linejoin="round"/>
<path d="M233.37 240.95C233.37 240.95 228.07 233.324 222.491 236.385C216.912 239.445 221.244 250.327 224.608 254.107C227.972 257.888 234.453 250.835 235.126 249.067" fill="white"/>
<path d="M233.37 240.95C233.37 240.95 228.07 233.324 222.491 236.385C216.912 239.445 221.244 250.327 224.608 254.107C227.972 257.888 234.453 250.835 235.126 249.067" fill="#5C33F6"/>
<path opacity="0.5" d="M233.37 240.95C233.37 240.95 228.07 233.324 222.491 236.385C216.912 239.445 221.244 250.327 224.608 254.107C227.972 257.888 234.453 250.835 235.126 249.067" fill="white"/>
<path d="M233.37 240.95C233.37 240.95 228.07 233.324 222.491 236.385C216.912 239.445 221.244 250.327 224.608 254.107C227.972 257.888 234.453 250.835 235.126 249.067" stroke="#263238" stroke-linecap="round" stroke-linejoin="round"/>
<path d="M166.44 233.995H48.8244C44.1846 233.995 40.4233 237.747 40.4233 242.374V328.124C40.4233 332.752 44.1846 336.503 48.8244 336.503H166.44C171.08 336.503 174.841 332.752 174.841 328.124V242.374C174.841 237.747 171.08 233.995 166.44 233.995Z" fill="white" stroke="#263238" stroke-linecap="round" stroke-linejoin="round"/>
<path d="M172.281 307.734L251.042 328.19L172.281 289.733" fill="white"/>
<path d="M172.281 307.734L251.042 328.19L172.281 289.733" stroke="#263238" stroke-linecap="round" stroke-linejoin="round"/>
<path d="M82.9047 243.847H51.2856V326.651H82.9047V243.847Z" fill="#5C33F6" stroke="#263238" stroke-linecap="round" stroke-linejoin="round"/>
<path d="M167.868 243.847H163.913V326.651H167.868V243.847Z" fill="#5C33F6" stroke="#263238" stroke-linecap="round" stroke-linejoin="round"/>
<path d="M167.868 281.698H163.913V288.767H167.868V281.698Z" fill="#263238" stroke="#263238" stroke-linecap="round" stroke-linejoin="round"/>
<path d="M92.799 245.811H155.069" stroke="#263238" stroke-linecap="round" stroke-linejoin="round"/>
<path d="M92.799 254.68H155.069" stroke="#263238" stroke-linecap="round" stroke-linejoin="round"/>
<path d="M92.799 263.566H155.069" stroke="#263238" stroke-linecap="round" stroke-linejoin="round"/>
<path d="M92.799 272.436H155.069" stroke="#263238" stroke-linecap="round" stroke-linejoin="round"/>
<path d="M92.799 294.119H155.069" stroke="#263238" stroke-linecap="round" stroke-linejoin="round"/>
<path d="M92.799 302.006H155.069" stroke="#263238" stroke-linecap="round" stroke-linejoin="round"/>
<path d="M92.799 309.894H155.069" stroke="#263238" stroke-linecap="round" stroke-linejoin="round"/>
<path d="M92.799 326.259H155.069" stroke="#263238" stroke-linecap="round" stroke-linejoin="round"/>
<path d="M51.2856 326.635L82.9211 243.847" stroke="white" stroke-linecap="round" stroke-linejoin="round"/>
<path d="M527.836 555.787C542.997 555.787 555.287 550.292 555.287 543.514C555.287 536.736 542.997 531.241 527.836 531.241C512.675 531.241 500.385 536.736 500.385 543.514C500.385 550.292 512.675 555.787 527.836 555.787Z" fill="#5C33F6"/>
<path opacity="0.5" d="M527.836 555.787C542.997 555.787 555.287 550.292 555.287 543.514C555.287 536.736 542.997 531.241 527.836 531.241C512.675 531.241 500.385 536.736 500.385 543.514C500.385 550.292 512.675 555.787 527.836 555.787Z" fill="white"/>
<path d="M495.724 361.901C498.661 363.177 505.848 363.013 505.848 363.013C505.848 363.013 504.306 358.317 504.208 358.104C502.567 354.831 497.644 349.382 493.591 349.922C492.926 350.042 492.292 350.298 491.73 350.674C491.168 351.049 490.689 351.536 490.324 352.104C489.96 352.673 489.716 353.31 489.609 353.976C489.502 354.642 489.534 355.323 489.703 355.977C490.31 358.726 493.214 360.804 495.724 361.901Z" fill="#263238"/>
<path d="M589.843 337.501C585.774 337.076 580.933 342.623 579.44 345.962C579.309 346.256 577.799 350.985 577.898 350.985H577.98C577.209 351.853 576.339 352.802 575.535 353.849C573.894 355.797 572.155 358.006 570.383 360.559C568.438 363.276 566.658 366.107 565.05 369.035C563.227 372.308 561.701 375.736 560.488 379.28C560.479 379.323 560.479 379.367 560.488 379.411C560.488 378.216 560.488 374.861 560.488 374.599C560.013 370.999 556.977 364.273 552.941 363.537C552.271 363.446 551.589 363.493 550.938 363.676C550.288 363.859 549.682 364.174 549.158 364.601C548.635 365.027 548.205 365.557 547.896 366.157C547.587 366.757 547.405 367.413 547.362 368.086C547.132 370.95 549.216 373.83 551.251 375.647C553.548 377.692 559.914 379.672 560.423 379.82C559.288 383.457 558.389 387.163 557.732 390.915C557.338 393.108 557.026 395.317 556.715 397.542C556.715 396.495 556.715 395.579 556.715 395.448C556.239 391.831 553.203 385.122 549.183 384.385C548.513 384.292 547.831 384.337 547.18 384.518C546.528 384.698 545.921 385.011 545.396 385.437C544.871 385.862 544.439 386.391 544.128 386.99C543.817 387.589 543.633 388.245 543.588 388.918C543.358 391.799 545.442 394.662 547.477 396.479C549.511 398.295 554.942 400.128 556.386 400.586C556.288 401.437 556.173 402.223 556.058 403.139C555.566 407.23 555.107 411.321 554.516 415.331C554.303 416.738 554.056 418.113 553.81 419.487C553.81 418.571 553.81 417.851 553.81 417.687C553.334 414.071 550.299 407.361 546.262 406.608C545.593 406.517 544.911 406.564 544.26 406.747C543.609 406.93 543.003 407.245 542.48 407.672C541.957 408.099 541.527 408.629 541.218 409.228C540.909 409.828 540.727 410.485 540.684 411.158C540.454 414.038 542.538 416.902 544.572 418.718C546.607 420.535 551.513 422.187 553.22 422.727C552.924 424.135 552.612 425.542 552.268 426.9C552.005 427.817 551.808 428.717 551.497 429.617C551.185 430.517 550.922 431.417 550.627 432.301C550.02 433.937 549.396 435.737 548.756 437.357C548.313 438.503 547.87 439.583 547.444 440.63C547.657 439.223 548.035 436.474 548.035 436.245C547.995 433.037 547.13 429.893 545.524 427.113C545.548 426.759 545.548 426.404 545.524 426.049C545.427 425.382 545.193 424.742 544.837 424.169C544.481 423.596 544.011 423.102 543.455 422.718C542.899 422.334 542.27 422.069 541.607 421.938C540.944 421.807 540.261 421.814 539.601 421.958C535.646 423.006 533.136 429.928 532.939 433.561C532.939 433.79 533.07 436.13 533.185 437.603C532.988 436.752 532.807 435.966 532.594 435.034C532.168 433.283 531.708 431.548 531.216 429.699C530.937 428.799 530.674 427.899 530.395 426.999C530.117 426.099 529.756 425.166 529.444 424.233C528.656 422.106 527.803 419.978 526.802 417.851C528.344 417.491 533.759 416.116 535.942 414.447C538.124 412.778 540.405 410.078 540.372 407.198C540.388 406.523 540.262 405.853 540.001 405.23C539.74 404.608 539.352 404.047 538.859 403.584C538.367 403.121 537.783 402.766 537.145 402.543C536.506 402.32 535.828 402.233 535.154 402.288C531.068 402.73 527.54 409.194 526.802 412.761C526.802 412.991 526.523 415.609 526.408 417.049C525.834 415.773 525.26 414.512 524.636 413.236C522.815 409.587 520.862 405.954 518.926 402.305C518.319 401.192 517.745 400.079 517.17 398.95C517.712 398.835 524.193 397.313 526.622 395.464C528.787 393.828 531.085 391.095 531.068 388.215C531.07 387.543 530.933 386.878 530.666 386.261C530.399 385.644 530.009 385.089 529.518 384.629C529.027 384.168 528.447 383.813 527.814 383.586C527.18 383.358 526.506 383.263 525.834 383.305C521.765 383.747 518.237 390.211 517.498 393.779C517.498 394.04 517.105 397.821 517.055 398.786C515.776 396.315 514.529 393.877 513.38 391.373C511.831 388.036 510.499 384.604 509.393 381.096C509.639 381.096 516.415 379.46 518.91 377.594C521.075 375.958 523.373 373.225 523.356 370.345C523.358 369.673 523.221 369.008 522.954 368.391C522.687 367.774 522.297 367.219 521.806 366.758C521.315 366.298 520.735 365.943 520.102 365.716C519.468 365.488 518.794 365.393 518.122 365.435C514.053 365.877 510.525 372.341 509.786 375.909C509.786 376.203 509.36 380.262 509.343 380.998C509.343 380.785 509.196 380.589 509.13 380.376C508.117 376.823 507.425 373.186 507.063 369.51C506.833 367.497 506.735 365.533 506.669 363.635C507.965 363.488 513.839 362.702 516.284 361.23C518.729 359.757 521.207 357.384 521.502 354.504C521.582 353.834 521.522 353.155 521.327 352.51C521.132 351.864 520.806 351.265 520.369 350.751C519.931 350.237 519.393 349.818 518.786 349.52C518.179 349.223 517.518 349.053 516.842 349.022C512.74 349.022 508.523 355.06 507.391 358.513C507.391 358.709 506.931 360.69 506.652 362.146C506.652 361.279 506.652 360.395 506.652 359.577C506.652 356.5 506.849 353.669 507.046 351.165C507.178 349.742 507.309 348.465 507.457 347.254C508.638 346.452 513.364 343.114 514.824 340.708C516.284 338.303 517.416 335.03 516.35 332.363C516.125 331.722 515.766 331.137 515.298 330.645C514.83 330.153 514.262 329.765 513.633 329.507C513.004 329.249 512.327 329.126 511.647 329.147C510.968 329.169 510.3 329.333 509.688 329.63C506.045 331.495 505.094 338.794 505.684 342.394C505.684 342.705 507.112 347.467 507.178 347.434C507.03 348.58 506.866 349.824 506.718 351.165C506.472 353.669 506.209 356.5 506.144 359.61C506.028 362.944 506.105 366.282 506.374 369.608C506.669 373.338 507.295 377.035 508.244 380.654C508.235 380.697 508.235 380.742 508.244 380.785C507.604 379.787 505.701 377.021 505.537 376.825C503.141 374.059 496.906 370.148 493.132 371.736C492.523 372.027 491.98 372.44 491.538 372.95C491.095 373.459 490.763 374.054 490.562 374.698C490.36 375.341 490.293 376.019 490.366 376.689C490.438 377.359 490.648 378.007 490.982 378.592C492.377 381.129 495.708 382.373 498.415 382.765C501.451 383.207 507.867 381.358 508.375 381.211C509.435 384.864 510.735 388.445 512.264 391.929C513.15 393.975 514.102 396.004 515.086 398.017C514.496 397.166 513.971 396.381 513.889 396.381C511.493 393.631 505.241 389.704 501.484 391.291C500.872 391.582 500.328 391.996 499.884 392.507C499.44 393.018 499.107 393.615 498.905 394.26C498.703 394.905 498.637 395.585 498.711 396.257C498.785 396.929 498.997 397.578 499.334 398.164C500.729 400.684 504.06 401.944 506.751 402.337C509.442 402.73 514.955 401.257 516.448 400.848C516.826 401.617 517.203 402.386 517.597 403.155C519.451 406.854 521.322 410.52 523.045 414.169C523.652 415.462 524.193 416.754 524.685 418.047C524.177 417.278 523.734 416.656 523.652 416.558C521.256 413.809 515.004 409.881 511.247 411.469C510.635 411.76 510.091 412.174 509.647 412.685C509.203 413.195 508.87 413.792 508.668 414.437C508.466 415.083 508.4 415.762 508.474 416.434C508.548 417.106 508.76 417.755 509.097 418.342C510.492 420.862 513.823 422.106 516.514 422.498C519.205 422.891 524.226 421.566 525.949 421.091C526.474 422.433 527.015 423.775 527.458 425.1C527.754 426 528.098 426.851 528.328 427.784C528.558 428.717 528.837 429.601 529.099 430.501C529.509 432.252 529.952 434.052 530.33 435.754C530.592 436.948 530.822 438.077 531.052 439.223C530.461 437.93 529.247 435.443 529.132 435.246C527.179 432.153 521.601 427.326 517.646 428.34C516.99 428.523 516.379 428.842 515.855 429.277C515.331 429.712 514.906 430.252 514.607 430.863C514.307 431.474 514.141 432.141 514.119 432.82C514.098 433.499 514.22 434.176 514.479 434.804C515.464 437.505 518.565 439.239 521.174 440.041C524.062 440.908 530.428 440.041 531.216 440.041C531.593 441.939 531.954 443.789 532.25 445.54C533.333 451.594 533.989 456.684 534.399 460.268C534.399 460.906 534.53 461.462 534.596 462.002H522.273L526.228 539.079C526.375 541.901 527.602 544.559 529.657 546.505C531.712 548.451 534.437 549.536 537.271 549.536C540.102 549.536 542.826 548.45 544.878 546.504C546.93 544.558 548.154 541.9 548.297 539.079L552.268 462.002H540.782C540.864 461.822 540.946 461.659 541.045 461.479C542.685 458.206 544.802 453.493 547.165 447.749C547.903 445.932 548.674 443.969 549.429 441.956C550.2 442.119 556.501 443.396 559.438 442.725C562.113 442.136 565.329 440.63 566.527 438.012C566.819 437.401 566.981 436.737 567.003 436.061C567.025 435.385 566.907 434.711 566.656 434.083C566.405 433.454 566.026 432.884 565.544 432.409C565.061 431.933 564.485 431.562 563.852 431.319C559.963 430.026 554.007 434.428 551.874 437.357C551.743 437.521 550.578 439.567 549.856 440.859C550.151 440.025 550.463 439.223 550.775 438.372C551.398 436.736 551.956 435.001 552.58 433.168C552.842 432.284 553.121 431.384 553.384 430.468C553.646 429.551 553.876 428.586 554.122 427.637C554.647 425.428 555.074 423.169 555.451 420.878C556.928 421.418 562.211 423.251 564.952 423.055C567.692 422.858 571.088 421.86 572.664 419.455C573.042 418.895 573.3 418.263 573.422 417.599C573.544 416.935 573.528 416.253 573.374 415.596C573.22 414.939 572.931 414.32 572.527 413.779C572.122 413.238 571.61 412.785 571.023 412.451C567.38 410.569 560.866 414.087 558.273 416.591C558.109 416.754 556.452 418.816 555.566 419.962C555.796 418.571 556.009 417.196 556.189 415.805C556.698 411.747 557.076 407.623 557.469 403.532L557.863 399.784C558.388 399.981 564.623 402.288 567.708 402.075C570.432 401.879 573.845 400.881 575.42 398.475C575.798 397.915 576.056 397.284 576.178 396.62C576.301 395.956 576.284 395.274 576.13 394.617C575.976 393.959 575.688 393.341 575.283 392.8C574.879 392.258 574.367 391.806 573.779 391.471C570.137 389.589 563.606 393.108 561.03 395.611C560.833 395.808 558.454 398.77 557.896 399.555C558.175 396.79 558.503 394.04 558.93 391.373C559.48 387.732 560.264 384.13 561.276 380.589C561.522 380.687 568.02 383.125 571.121 382.896C573.845 382.716 577.258 381.718 578.833 379.296C579.211 378.736 579.469 378.104 579.591 377.441C579.714 376.777 579.697 376.095 579.543 375.437C579.389 374.78 579.101 374.162 578.696 373.62C578.292 373.079 577.78 372.627 577.192 372.292C573.55 370.426 567.035 373.928 564.443 376.449C564.246 376.645 561.686 379.836 561.276 380.442C561.276 380.245 561.375 380.016 561.44 379.82C562.559 376.295 563.992 372.878 565.723 369.608C566.642 367.792 567.643 366.106 568.643 364.502C569.808 365.075 575.207 367.661 577.996 367.775C580.786 367.89 584.215 367.268 586.053 365.043C586.493 364.529 586.822 363.93 587.019 363.283C587.217 362.636 587.278 361.956 587.199 361.285C587.121 360.613 586.904 359.965 586.563 359.382C586.222 358.798 585.763 358.29 585.216 357.891C581.803 355.633 574.944 358.349 572.089 360.624C571.942 360.755 570.448 362.261 569.464 363.242L570.842 361.066C572.565 358.497 574.288 356.255 575.765 354.275C576.651 353.146 577.488 352.164 578.259 351.231C579.703 351.231 585.495 351.035 588.022 349.856C590.549 348.678 593.322 346.583 593.929 343.72C594.124 343.041 594.17 342.329 594.063 341.631C593.957 340.934 593.702 340.267 593.314 339.677C592.926 339.087 592.415 338.587 591.817 338.212C591.218 337.836 590.545 337.594 589.843 337.501ZM544.769 446.554C542.308 452.2 540.044 456.815 538.419 460.006L537.533 461.757H537.254C537.172 461.135 537.09 460.448 536.975 459.679C536.483 456.078 535.712 450.956 534.498 444.95C534.104 443.019 533.661 440.958 533.185 438.863C535.101 438.091 536.974 437.217 538.797 436.245C541.271 438.366 544.033 440.129 547.001 441.481C546.213 443.199 545.491 444.934 544.769 446.554Z" fill="#263238"/>
<path d="M568.397 363.472C568.397 363.472 569.694 358.709 569.743 358.399C570.251 354.782 569.086 347.516 565.411 345.732C564.791 345.471 564.123 345.34 563.45 345.347C562.776 345.353 562.112 345.497 561.496 345.77C560.881 346.043 560.329 346.439 559.873 346.934C559.418 347.428 559.068 348.011 558.848 348.645C557.863 351.362 559.11 354.684 560.603 356.975C562.31 359.659 568.381 363.472 568.397 363.472Z" fill="#263238"/>
</svg>
