<svg width="296" height="572" viewBox="0 0 296 572" fill="none" xmlns="http://www.w3.org/2000/svg">
<path d="M130.03 572C188.106 572 235.187 555.558 235.187 535.276C235.187 514.993 188.106 498.551 130.03 498.551C71.9533 498.551 24.8729 514.993 24.8729 535.276C24.8729 555.558 71.9533 572 130.03 572Z" fill="#5C33F6"/>
<path opacity="0.5" d="M130.03 572C188.106 572 235.187 555.558 235.187 535.276C235.187 514.993 188.106 498.551 130.03 498.551C71.9533 498.551 24.8729 514.993 24.8729 535.276C24.8729 555.558 71.9533 572 130.03 572Z" fill="white"/>
<path d="M63.13 516.875C63.13 516.875 52.1636 531.32 50.7949 536.462C49.4262 541.603 53.5324 545.238 61.3106 544.729C69.0889 544.221 74.5637 531.32 76.8505 528.213C79.1372 525.105 84.6288 521.508 85.5301 514.295C86.4314 507.082 65.8841 510.679 63.13 516.875Z" fill="white" stroke="#263238" stroke-linecap="round" stroke-linejoin="round"/>
<path d="M85.5301 514.295C85.6294 513.64 85.5041 512.966 85.1796 512.412C83.1599 518.683 79.0037 524.672 76.8338 525.595C74.6639 526.518 70.4242 535.407 64.0313 540.04C59.6581 543.204 53.8161 540.624 50.5278 538.646C50.7448 542.582 54.6841 545.125 61.2939 544.692C69.0555 544.164 74.547 531.282 76.8338 528.175C79.1205 525.068 84.6287 521.508 85.5301 514.295Z" fill="#263238" stroke="#263238" stroke-linecap="round" stroke-linejoin="round"/>
<path d="M195.027 516.875C195.027 516.875 206.01 531.32 207.379 536.462C208.747 541.603 204.624 545.238 196.863 544.729C189.101 544.221 183.51 531.32 181.306 528.213C179.103 525.105 173.545 521.508 172.627 514.295C171.709 507.082 192.289 510.679 195.027 516.875Z" fill="white" stroke="#263238" stroke-linecap="round" stroke-linejoin="round"/>
<path d="M172.627 514.295C172.523 513.637 172.655 512.96 172.994 512.412C174.997 518.683 179.17 524.672 181.34 525.595C183.51 526.518 187.749 535.407 194.142 540.04C198.515 543.204 204.357 540.624 207.646 538.646C207.445 542.582 203.489 545.125 196.896 544.692C189.118 544.164 183.543 531.282 181.34 528.175C179.136 525.068 173.545 521.508 172.627 514.295Z" fill="#263238" stroke="#263238" stroke-linecap="round" stroke-linejoin="round"/>
<path d="M105.744 255.491C105.744 255.491 100.169 297.639 99.7013 299.184C99.2339 300.728 82.7927 394.611 79.5879 413.689C76.3831 432.767 71.8263 451.863 71.359 463.22C70.8916 474.576 67.7035 503.447 67.7035 503.447C66.2836 505.823 65.2023 508.435 64.4987 511.188C64.2062 513.117 63.7478 515.009 63.13 516.838C66.2817 517.78 69.4891 518.466 72.7277 518.89C77.3012 519.418 82.342 516.838 84.1614 516.838C85.9808 516.838 89.6529 501.357 91.0216 494.652C92.3903 487.948 99.2506 455.969 100.619 450.281C101.988 444.594 119.364 367.755 119.364 367.755L135.054 321.162L141.914 318.073L152.28 405.929L169.205 506.084L172.86 520.529C176.102 521.659 179.484 522.187 182.875 522.092C186.998 521.565 194.776 516.442 194.776 516.442C194.776 516.442 195.678 509.738 194.309 507.685C192.94 505.632 189.736 499.944 189.736 499.944C189.736 499.944 186.998 434.424 184.728 419.47C182.458 404.517 179.721 385.929 179.721 385.929C179.721 385.929 176.065 320.427 176.065 304.438C176.065 288.449 169.589 256.056 169.589 256.056C169.589 256.056 136.473 265.02 105.744 255.491Z" fill="#263238" stroke="#263238" stroke-linecap="round" stroke-linejoin="round"/>
<path d="M131.248 263.589L131.716 273.91C131.716 273.91 141.731 275.962 147.256 272.365V262.553L131.248 263.589Z" fill="white" stroke="#263238" stroke-linecap="round" stroke-linejoin="round"/>
<path d="M138.175 281.782L137.608 314.439" stroke="white" stroke-width="0.75" stroke-linecap="round" stroke-linejoin="round"/>
<path d="M138.743 297.15L142.148 293.948L142.715 279.861" stroke="white" stroke-width="0.75" stroke-linecap="round" stroke-linejoin="round"/>
<path d="M111.502 267.695C111.502 267.695 114.34 277.94 110.367 281.782C108.195 283.967 105.697 285.701 102.99 286.905" stroke="white" stroke-width="0.75" stroke-linecap="round" stroke-linejoin="round"/>
<path d="M161.443 267.055C161.443 267.055 164.281 277.3 172.226 278.581" stroke="white" stroke-width="0.75" stroke-linecap="round" stroke-linejoin="round"/>
<path d="M116.677 142.963C116.677 142.963 89.97 137.313 86.6317 136.372C83.2934 135.43 52.4139 106.239 52.4139 106.239L31.0821 45.6526L19.9321 49.0426C19.9321 49.0426 21.9518 85.9931 23.2704 96.3513C24.5891 106.709 31.6162 126.955 32.4508 128.838C33.2854 130.722 37.4583 136.372 39.1274 136.842C40.7966 137.313 60.4092 153.792 64.9994 156.617C69.5896 159.442 87.9503 171.684 87.9503 171.684C87.9503 171.684 97.1307 198.05 98.3825 203.229C99.6344 208.408 105.476 241.837 105.894 245.604C106.311 249.37 104.225 252.195 105.894 255.491C107.563 258.787 119.664 268.203 136.356 268.203C153.047 268.203 168.07 261.612 169.739 255.962C171.408 250.312 168.904 232.891 168.904 231.479C168.904 230.066 170.574 209.35 170.574 209.35C170.574 209.35 179.337 229.595 183.092 236.187C186.848 242.779 192.69 251.724 196.863 251.724C201.036 251.724 254.032 215 254.032 215L251.528 203.229C243.806 207.185 235.675 210.033 227.325 211.704C215.641 213.587 199.784 218.296 199.784 218.296C199.784 218.296 184.344 180.159 182.675 173.096C181.006 166.034 178.502 153.321 176.416 150.967C174.329 148.613 145.954 143.905 142.198 143.905C138.442 143.905 116.677 142.963 116.677 142.963Z" fill="white"/>
<path d="M169.589 255.962C171.258 250.312 168.754 232.891 168.754 231.479C168.754 230.518 169.522 220.668 170.023 214.435L169.789 216.318C169.789 216.318 166.017 235.509 166.017 243.325C166.017 251.14 166.634 260.387 155.301 263.231C143.967 266.075 134.52 253.268 124.438 243.325C114.356 233.381 108.698 222.006 107.446 214.905C106.194 207.805 120.666 224.849 120.666 224.849C120.666 224.849 106.812 202.833 102.405 190.743C97.9987 178.652 90.4374 150.948 90.4374 150.948L91.0717 172.267L82.2586 158.067C82.2586 158.067 79.7381 150.948 77.2511 144.564C74.764 138.179 71.5759 150.948 71.5759 150.948C71.5759 150.948 56.47 120.401 52.0635 116.126C47.6569 111.851 54.5672 141.004 54.5672 141.004C47.7703 134.997 41.2572 128.591 35.0548 121.814C31.724 118.07 28.7171 113.978 26.0747 109.591C28.5784 118.612 31.7832 127.652 32.334 128.876C33.1686 130.759 37.3415 136.409 39.0107 136.88C40.6798 137.351 60.2924 153.83 64.8826 156.655C69.4728 159.48 87.8335 171.721 87.8335 171.721C87.8335 171.721 97.0139 198.088 98.2658 203.267C99.5176 208.446 105.36 241.874 105.777 245.641C106.194 249.408 104.108 252.233 105.777 255.528C107.446 258.824 119.548 268.241 136.239 268.241C152.931 268.241 167.92 261.612 169.589 255.962Z" fill="#5C33F6"/>
<path d="M198.766 240.538C193.758 239.125 177.985 212.834 177.985 209.99C177.985 207.146 179.871 193.643 179.871 193.643L174.196 200.743L175.464 187.956L172.944 190.799L170.59 209.84C171.826 212.665 179.487 230.217 182.942 236.206C186.698 242.798 192.54 251.743 196.713 251.743C199.333 251.743 221.333 237.185 237.256 226.394C222.267 232.891 201.887 241.329 198.766 240.538Z" fill="#5C33F6"/>
<g opacity="0.5">
<path opacity="0.5" d="M169.589 255.962C171.258 250.312 168.754 232.891 168.754 231.479C168.754 230.518 169.522 220.668 170.023 214.435L169.789 216.318C169.789 216.318 166.017 235.509 166.017 243.325C166.017 251.14 166.634 260.387 155.301 263.231C143.967 266.075 134.52 253.268 124.438 243.325C114.356 233.381 108.698 222.006 107.446 214.905C106.194 207.805 120.666 224.849 120.666 224.849C120.666 224.849 106.812 202.833 102.405 190.743C97.9987 178.652 90.4374 150.948 90.4374 150.948L91.0717 172.267L82.2586 158.067C82.2586 158.067 79.7381 150.948 77.2511 144.564C74.764 138.179 71.5759 150.948 71.5759 150.948C71.5759 150.948 56.47 120.401 52.0635 116.126C47.6569 111.851 54.5672 141.004 54.5672 141.004C47.7703 134.997 41.2572 128.591 35.0548 121.814C31.724 118.07 28.7171 113.978 26.0747 109.591C28.5784 118.612 31.7832 127.652 32.334 128.876C33.1686 130.759 37.3415 136.409 39.0107 136.88C40.6798 137.351 60.2924 153.83 64.8826 156.655C69.4728 159.48 87.8335 171.721 87.8335 171.721C87.8335 171.721 97.0139 198.088 98.2658 203.267C99.5176 208.446 105.36 241.874 105.777 245.641C106.194 249.408 104.108 252.233 105.777 255.528C107.446 258.824 119.548 268.241 136.239 268.241C152.931 268.241 167.92 261.612 169.589 255.962Z" fill="white"/>
<path opacity="0.5" d="M198.766 240.538C193.758 239.125 177.985 212.834 177.985 209.99C177.985 207.146 179.871 193.643 179.871 193.643L174.196 200.743L175.464 187.956L172.944 190.799L170.59 209.84C171.826 212.665 179.487 230.217 182.942 236.206C186.698 242.798 192.54 251.743 196.713 251.743C199.333 251.743 221.333 237.185 237.256 226.394C222.267 232.891 201.887 241.329 198.766 240.538Z" fill="white"/>
</g>
<path d="M116.677 142.963C116.677 142.963 89.97 137.313 86.6317 136.372C83.2934 135.43 52.4139 106.239 52.4139 106.239L31.0821 45.6526L19.9321 49.0426C19.9321 49.0426 21.9518 85.9931 23.2704 96.3513C24.5891 106.709 31.6162 126.955 32.4508 128.838C33.2854 130.722 37.4583 136.372 39.1274 136.842C40.7966 137.313 60.4092 153.792 64.9994 156.617C69.5896 159.442 87.9503 171.684 87.9503 171.684C87.9503 171.684 97.1307 198.05 98.3825 203.229C99.6344 208.408 105.476 241.837 105.894 245.604C106.311 249.37 104.225 252.195 105.894 255.491C107.563 258.787 119.664 268.203 136.356 268.203C153.047 268.203 168.07 261.612 169.739 255.962C171.408 250.312 168.904 232.891 168.904 231.479C168.904 230.066 170.574 209.35 170.574 209.35C170.574 209.35 179.337 229.595 183.092 236.187C186.848 242.779 192.69 251.724 196.863 251.724C201.036 251.724 254.032 215 254.032 215L251.528 203.229C243.806 207.185 235.675 210.033 227.325 211.704C215.641 213.587 199.784 218.296 199.784 218.296C199.784 218.296 184.344 180.159 182.675 173.096C181.006 166.034 178.502 153.321 176.416 150.967C174.329 148.613 145.954 143.905 142.198 143.905C138.442 143.905 116.677 142.963 116.677 142.963Z" stroke="#263238" stroke-linecap="round" stroke-linejoin="round"/>
<path d="M244.317 207.334L248.29 218.729" stroke="#263238" stroke-linecap="round" stroke-linejoin="round"/>
<path d="M20.3328 57.5926L33.419 53.5059" stroke="#263238" stroke-linecap="round" stroke-linejoin="round"/>
<path d="M111.669 221.12C111.669 221.12 134.203 250.312 157.571 256.903" stroke="#263238" stroke-linecap="round" stroke-linejoin="round"/>
<path d="M174.697 177.654L175.431 172.154" stroke="#263238" stroke-linecap="round" stroke-linejoin="round"/>
<path d="M170.424 209.35L173.979 182.964" stroke="#263238" stroke-linecap="round" stroke-linejoin="round"/>
<path d="M170.841 205.112L179.186 184.396" stroke="#263238" stroke-linecap="round" stroke-linejoin="round"/>
<path d="M81.8747 139.912L81.1235 135.901" stroke="#263238" stroke-linecap="round" stroke-linejoin="round"/>
<path d="M87.8001 171.684L82.8928 145.393" stroke="#263238" stroke-linecap="round" stroke-linejoin="round"/>
<path d="M71.7428 132.04L69.4393 126.484" stroke="#263238" stroke-linecap="round" stroke-linejoin="round"/>
<path d="M86.9657 168.858L73.6292 136.597" stroke="#263238" stroke-linecap="round" stroke-linejoin="round"/>
<path d="M51.5795 108.592C51.5795 108.592 55.7524 127.425 61.1771 136.842" stroke="#263238" stroke-linecap="round" stroke-linejoin="round"/>
<path d="M205.476 231.008L199.634 218.296L210.901 228.654" stroke="#263238" stroke-linecap="round" stroke-linejoin="round"/>
<path d="M125.356 161.796L133.285 175.921L132.033 255.491L140.379 269.615L147.473 249.37L135.788 174.508L140.796 163.208L134.119 150.496L125.356 161.796Z" fill="#263238" stroke="#263238" stroke-linecap="round" stroke-linejoin="round"/>
<path d="M123.053 134.695C123.053 134.695 117.762 134.375 116.109 136.88C114.937 139.088 114.176 141.542 113.872 144.093C113.872 144.093 116.376 154.112 116.944 157.879C117.511 161.646 119.431 171.062 119.431 171.062L133.886 159.461L150.277 170.12C150.277 170.12 147.222 149.743 146.104 143.17C144.986 136.598 142.215 135.016 137.491 134.394C132.678 134.108 127.853 134.209 123.053 134.695Z" fill="white" stroke="#263238" stroke-linecap="round" stroke-linejoin="round"/>
<path d="M117.211 121.21C117.211 121.21 120.265 137.821 121.384 140.947C122.502 144.074 131.933 159.442 133.886 159.442C135.839 159.442 141.948 142.492 142.231 139.704C142.515 136.917 142.515 130.288 142.515 130.288C142.515 130.288 133.068 133.113 128.628 129.666C124.188 126.22 120.282 117.764 118.613 117.764C116.944 117.764 117.211 121.21 117.211 121.21Z" fill="white"/>
<path d="M128.611 129.666C124.154 126.22 120.265 117.764 118.596 117.764C116.927 117.764 117.211 121.21 117.211 121.21C117.211 121.21 118.88 130.024 120.148 136.032C123.254 139.358 127.163 141.573 131.382 142.398C135.217 142.728 139.042 141.622 142.265 139.252C142.499 136.239 142.499 130.288 142.499 130.288C142.499 130.288 133.051 133.188 128.611 129.666Z" fill="#5C33F6"/>
<path opacity="0.5" d="M128.611 129.666C124.154 126.22 120.265 117.764 118.596 117.764C116.927 117.764 117.211 121.21 117.211 121.21C117.211 121.21 118.88 130.024 120.148 136.032C123.254 139.358 127.163 141.573 131.382 142.398C135.217 142.728 139.042 141.622 142.265 139.252C142.499 136.239 142.499 130.288 142.499 130.288C142.499 130.288 133.051 133.188 128.611 129.666Z" fill="white"/>
<path d="M117.211 121.21C117.211 121.21 120.265 137.821 121.384 140.947C122.502 144.074 131.933 159.442 133.886 159.442C135.839 159.442 141.948 142.492 142.231 139.704C142.515 136.917 142.515 130.288 142.515 130.288C142.515 130.288 133.068 133.113 128.628 129.666C124.188 126.22 120.282 117.764 118.613 117.764C116.944 117.764 117.211 121.21 117.211 121.21Z" stroke="#263238" stroke-linecap="round" stroke-linejoin="round"/>
<path d="M150.277 83.9024C150.277 83.9024 151.111 99.2702 151.946 106.163C152.78 113.056 153.048 121.23 149.993 126.541C146.938 131.851 143.884 135.317 137.491 136.258C131.098 137.2 123.053 132.812 120.549 128.424C118.045 124.036 115.825 119.648 115.825 119.648C113.983 119.582 112.179 119.041 110.551 118.066C108.047 116.503 105.827 109.289 106.662 106.464C107.496 103.64 111.669 103.338 111.669 103.338C111.669 103.338 109.733 93.6203 108.615 87.0287C108.037 83.5913 108.634 80.0347 110.284 77.0726C111.934 74.1106 114.516 71.9621 117.511 71.0582C124.455 68.5346 134.737 68.8548 140.011 71.9999C145.286 75.145 148.891 78.5727 150.277 83.9024Z" fill="white"/>
<path d="M128.227 84.8253C132.116 87.9704 138.976 97.1987 150.961 94.8822C150.56 89.2323 150.277 83.9025 150.277 83.9025C148.891 78.5727 145.269 75.1263 139.995 71.9811C134.72 68.836 124.438 68.5347 117.494 71.0583C115.795 71.6104 114.215 72.5529 112.853 73.8266C111.492 75.1002 110.378 76.6776 109.583 78.4597L114.156 82.6407C114.156 82.6407 123.821 81.2847 128.227 84.8253Z" fill="#5C33F6"/>
<path opacity="0.5" d="M128.227 84.8253C132.116 87.9704 138.976 97.1987 150.961 94.8822C150.56 89.2323 150.277 83.9025 150.277 83.9025C148.891 78.5727 145.269 75.1263 139.995 71.9811C134.72 68.836 124.438 68.5347 117.494 71.0583C115.795 71.6104 114.215 72.5529 112.853 73.8266C111.492 75.1002 110.378 76.6776 109.583 78.4597L114.156 82.6407C114.156 82.6407 123.821 81.2847 128.227 84.8253Z" fill="white"/>
<path d="M150.277 83.9024C150.277 83.9024 151.111 99.2702 151.946 106.163C152.78 113.056 153.048 121.23 149.993 126.541C146.938 131.851 143.884 135.317 137.491 136.258C131.098 137.2 123.053 132.812 120.549 128.424C118.045 124.036 115.825 119.648 115.825 119.648C113.983 119.582 112.179 119.041 110.551 118.066C108.047 116.503 105.827 109.289 106.662 106.464C107.496 103.64 111.669 103.338 111.669 103.338C111.669 103.338 109.733 93.6203 108.615 87.0287C108.037 83.5913 108.634 80.0347 110.284 77.0726C111.934 74.1106 114.516 71.9621 117.511 71.0582C124.455 68.5346 134.737 68.8548 140.011 71.9999C145.286 75.145 148.891 78.5727 150.277 83.9024Z" stroke="#263238" stroke-linecap="round" stroke-linejoin="round"/>
<path d="M146.388 91.1156C145.396 90.9709 144.388 91.0638 143.43 91.3883C142.473 91.7128 141.586 92.2616 140.829 92.9989C138.326 95.5037 141.948 107.406 141.948 109.29C141.948 111.173 136.656 112.736 136.656 112.736" stroke="#263238" stroke-linecap="round" stroke-linejoin="round"/>
<path d="M141.948 121.211C141.948 121.211 134.503 123.094 131.566 118.084" stroke="#263238" stroke-linecap="round" stroke-linejoin="round"/>
<path d="M131.699 94.8819C131 94.3221 130.206 93.933 129.366 93.7394C128.527 93.5458 127.661 93.552 126.823 93.7576C125.986 93.9632 125.196 94.3637 124.503 94.9335C123.811 95.5033 123.232 96.2298 122.802 97.0666" stroke="#263238" stroke-linecap="round" stroke-linejoin="round"/>
<path d="M130.948 103.752C131.115 105.108 130.564 106.332 129.729 106.445C128.895 106.558 128.06 105.56 127.927 104.185C127.793 102.811 128.311 101.605 129.145 101.473C129.98 101.342 130.798 102.377 130.948 103.752Z" fill="#263238"/>
<path d="M146.237 101.869C146.388 103.244 145.837 104.449 145.002 104.562C144.168 104.675 143.333 103.677 143.199 102.302C143.066 100.928 143.6 99.7223 144.435 99.5904C145.269 99.4586 146.07 100.494 146.237 101.869Z" fill="#263238"/>
<path d="M124.989 107.726L129.162 107.406" stroke="#263238" stroke-width="0.5" stroke-linecap="round" stroke-linejoin="round"/>
<path d="M149.442 103.96L145.002 105.542" stroke="#263238" stroke-width="0.5" stroke-linecap="round" stroke-linejoin="round"/>
<path d="M110 99.572L113.889 113.056C114.401 113.153 114.928 113.051 115.382 112.767C115.837 112.483 116.193 112.034 116.393 111.493C116.96 109.61 113.338 101.775 113.889 100.834C114.44 99.8922 118.346 98.329 117.778 94.8826C117.211 91.4361 114.173 85.7862 114.173 82.6411C114.173 79.4959 119.731 76.9911 122.786 76.9911C125.84 76.9911 130.28 80.7578 133.902 84.2042C137.524 87.6507 136.957 81.6806 136.957 81.6806C136.957 81.6806 147.79 87.952 153.899 86.0875C160.008 84.223 153.632 72.9043 153.632 72.9043C153.632 72.9043 160.842 66.9531 157.788 60.6817C154.733 54.4102 138.626 51.2651 125.573 54.4102C112.52 57.5554 107.763 62.904 106.662 65.3899C105.972 66.9701 105.5 68.6592 105.26 70.3995C101.552 72.8475 98.7807 76.7595 97.4813 81.3792C95.8121 88.5923 102.489 94.5624 105.26 95.4852C107.161 96.2929 108.81 97.7142 110 99.572V99.572Z" fill="#263238" stroke="#263238" stroke-linecap="round" stroke-linejoin="round"/>
<path d="M143.283 67.5746C137.124 64.7685 128.644 62.0565 122.752 64.5802C112.454 69.0248 114.907 75.1079 114.907 75.1079C114.907 75.1079 129.045 67.2733 136.94 81.6994" stroke="white" stroke-width="0.75" stroke-linecap="round" stroke-linejoin="round"/>
<path d="M151.211 71.7739C151.211 71.7739 149.859 70.9264 147.689 69.7588" stroke="white" stroke-width="0.75" stroke-linecap="round" stroke-linejoin="round"/>
<path d="M251.378 203.229C251.378 203.229 253.464 193.812 255.133 191.458C256.802 189.104 260.558 187.692 261.81 184.867C263.062 182.042 264.731 178.275 265.983 180.158C266.579 180.898 266.969 181.818 267.106 182.806C267.242 183.794 267.119 184.805 266.751 185.714C266.045 187.616 265.032 189.353 263.763 190.837C262.991 191.741 262.419 192.838 262.094 194.038C262.088 194.436 261.99 194.826 261.81 195.168L286.664 184.264C287.032 184.457 287.353 184.749 287.6 185.113C287.847 185.477 288.013 185.903 288.082 186.354C288.366 187.955 286.53 188.916 285.679 189.236C284.828 189.556 274.462 194.886 274.462 194.886L275.597 196.957L291.621 194.961C292.074 194.937 292.519 195.105 292.868 195.432C293.217 195.759 293.446 196.221 293.508 196.728C293.571 197.235 293.464 197.75 293.207 198.172C292.951 198.594 292.563 198.893 292.122 199.01L276.298 202.099L275.881 204.17L293.274 206.054C293.689 206.128 294.065 206.377 294.325 206.751C294.585 207.125 294.71 207.595 294.676 208.069C294.623 208.493 294.434 208.881 294.145 209.158C293.855 209.436 293.486 209.584 293.107 209.576L275.731 209.293C278.618 211.176 279.753 211.817 282.691 213.606C287.699 216.657 289.084 218.446 285.378 218.258C284.104 217.977 282.865 217.522 281.69 216.902L273.995 214.171C273.995 214.171 270.656 214.491 267.752 214.962C264.848 215.433 261.075 216.412 259.506 216.412C257.601 216.155 255.72 215.714 253.881 215.094L251.378 203.229Z" fill="white" stroke="#263238" stroke-linecap="round" stroke-linejoin="round"/>
<path d="M261.776 195.169V201.741C261.776 203.625 260.358 205.263 257.67 206.224" stroke="#263238" stroke-linecap="round" stroke-linejoin="round"/>
<path d="M30.1308 45.6146C30.1308 45.6146 36.3234 38.8912 37.3082 36.0851C38.293 33.279 37.5085 28.9097 38.9774 26.273C40.4462 23.6364 42.5994 20.1335 40.513 19.851C39.6512 19.6318 38.7514 19.7043 37.926 20.0594C37.1006 20.4145 36.3864 21.0364 35.8727 21.8473C34.7634 23.4885 33.9316 25.3463 33.4191 27.3277C33.1087 28.5521 32.5354 29.6713 31.7499 30.5858C31.4492 30.7929 31.2018 31.085 31.0322 31.4333L27.0262 1.67701C26.7121 1.44338 26.3552 1.29318 25.9822 1.23772C25.6092 1.18226 25.23 1.223 24.873 1.35685C23.4876 1.86534 23.6712 4.16298 23.8548 5.12347C24.0384 6.08396 25.14 18.9093 25.14 18.9093H22.9701L16.5272 2.14784C16.3338 1.67193 15.9852 1.29851 15.5539 1.10527C15.1226 0.912039 14.642 0.913883 14.2119 1.11042C13.7818 1.30695 13.4354 1.68303 13.2449 2.16041C13.0543 2.63778 13.0343 3.17969 13.1889 3.67333L18.6971 20.6231L17.3117 22.0921L7.17989 6.00863C6.93412 5.68458 6.59292 5.47154 6.21904 5.40868C5.84516 5.34583 5.46372 5.43738 5.1449 5.66651C4.82607 5.89564 4.59127 6.24695 4.48369 6.65581C4.3761 7.06468 4.40297 7.50363 4.55933 7.89194L13.4392 24.8417C10.5516 22.9584 9.50003 22.1674 6.66246 20.1899C1.83859 16.8377 -0.247857 16.4233 1.75513 19.8698C2.60216 20.9778 3.56633 21.9644 4.62609 22.8077L10.6017 28.8908C10.6017 28.8908 12.0538 32.3938 13.1054 35.4071C14.157 38.4204 15.3087 42.6578 16.0932 44.1833C17.244 45.9213 18.5227 47.5467 19.9156 49.0423L30.1308 45.6146Z" fill="white" stroke="#263238" stroke-linecap="round" stroke-linejoin="round"/>
<path d="M31.1491 31.4902L26.1416 34.7484C24.6561 35.7088 24.1386 37.9123 24.7395 41.0198" stroke="#263238" stroke-linecap="round" stroke-linejoin="round"/>
</svg>
