<svg width="264" height="264" viewBox="0 0 264 264" fill="none" xmlns="http://www.w3.org/2000/svg">
<path d="M130.22 250.277C193.705 250.277 245.17 234.244 245.17 214.467C245.17 194.69 193.705 178.657 130.22 178.657C66.7349 178.657 15.27 194.69 15.27 214.467C15.27 234.244 66.7349 250.277 130.22 250.277Z" fill="#5C33F6"/>
<path opacity="0.5" d="M130.22 250.277C193.705 250.277 245.17 234.244 245.17 214.467C245.17 194.69 193.705 178.657 130.22 178.657C66.7349 178.657 15.27 194.69 15.27 214.467C15.27 234.244 66.7349 250.277 130.22 250.277Z" fill="white"/>
<path d="M120.51 56.5671C120.51 56.5671 94.4599 53.4771 77.3199 66.8471C60.1799 80.2171 45.4399 136.087 45.7799 162.847C46.1199 189.607 56.0699 202.957 81.0899 213.917C106.11 224.877 152.72 220.777 178.77 212.547C204.82 204.317 213.39 175.547 213.05 160.107C212.71 144.667 195.57 126.857 189.74 123.107C183.91 119.357 167.46 111.457 159.24 99.1071C151.02 86.7571 139.01 59.9971 120.51 56.5671Z" fill="#5C33F6"/>
<path opacity="0.13" d="M183.55 210.697C173.7 209.367 162.02 206.697 153.18 201.327C134.51 189.997 129.85 168.657 123.18 160.657C116.51 152.657 104.51 153.327 99.1799 144.657C93.8499 135.987 102.51 71.9971 87.1799 67.9971C84.069 67.0985 80.848 66.6374 77.6099 66.6271C77.5199 66.7071 77.4099 66.7671 77.3199 66.8471C60.1799 80.2171 45.4399 136.087 45.7799 162.847C46.1199 189.607 56.0699 202.957 81.0899 213.917C106.11 224.877 152.72 220.777 178.77 212.547C180.4 212.03 181.997 211.413 183.55 210.697Z" fill="black"/>
<path d="M120.51 56.5671C120.51 56.5671 94.4599 53.4771 77.3199 66.8471C60.1799 80.2171 45.4399 136.087 45.7799 162.847C46.1199 189.607 56.0699 202.957 81.0899 213.917C106.11 224.877 152.72 220.777 178.77 212.547C204.82 204.317 213.39 175.547 213.05 160.107C212.71 144.667 195.57 126.857 189.74 123.107C183.91 119.357 167.46 111.457 159.24 99.1071C151.02 86.7571 139.01 59.9971 120.51 56.5671Z" stroke="#263238" stroke-linecap="round" stroke-linejoin="round"/>
<path d="M110.25 68.6471C110.25 68.6471 93.25 71.8971 90.25 74.8971C87.25 77.8971 74.75 124.897 74.75 124.897C78.2253 124.051 81.8709 124.224 85.25 125.397C90.25 127.397 90.75 132.647 91.25 135.147C91.6514 138.133 91.9017 141.136 92 144.147C92 144.147 142.53 139.637 153.28 137.147C164.03 134.657 180.39 133.497 180.39 133.497C180.39 133.497 152.75 71.1571 148.5 68.9071C144.25 66.6571 126.5 66.4071 124 66.9071C121.5 67.4071 110.25 68.6471 110.25 68.6471Z" fill="#263238" stroke="#263238" stroke-linecap="round" stroke-linejoin="round"/>
<path d="M93.5 126.397L97.75 91.6471" stroke="white" stroke-linecap="round" stroke-linejoin="round"/>
<path d="M96.75 100.897L102.5 93.3971" stroke="white" stroke-linecap="round" stroke-linejoin="round"/>
<path d="M114 105.397C114 105.397 130.25 100.147 141 100.147" stroke="white" stroke-linecap="round" stroke-linejoin="round"/>
<path d="M129.34 91.067L128.25 99.397C128.25 99.397 131 99.397 131.25 100.647C131.267 101.11 131.187 101.572 131.015 102.003C130.843 102.434 130.582 102.823 130.25 103.147C130.25 103.147 138 107.397 139 112.397" stroke="white" stroke-linecap="round" stroke-linejoin="round"/>
<path d="M119.58 59.3271C119.58 59.3271 110.25 62.3271 108.91 64.6571C107.57 66.9871 108.58 83.3271 108.58 85.3271C108.58 87.3271 109.75 84.1571 110.75 81.8271C111.75 79.4971 115.25 75.9871 116.41 76.3271C117.57 76.6671 118.25 77.9871 118.25 80.1571C118.25 82.3271 120.91 85.3271 123.25 86.9871C125.59 88.6471 127.75 90.3271 127.75 90.3271C127.75 90.3271 132.58 83.3271 133.75 81.4871C134.92 79.6471 134.75 75.8271 134.91 74.4871C135.07 73.1471 138.08 78.1571 138.75 76.8271C139.42 75.4971 137.25 74.3271 134.91 70.6571C132.57 66.9871 133.25 63.1571 129.75 60.4871C126.25 57.8171 122.25 58.6471 119.58 59.3271Z" fill="white"/>
<path d="M108.91 64.647C108.03 66.207 108.17 73.987 108.37 79.647C110.5 76.907 114.89 71.727 117.43 72.707C120.67 73.957 121.91 83.167 121.91 83.167L119.72 59.327H119.58C119.58 59.327 110.25 62.327 108.91 64.647Z" fill="#5C33F6"/>
<path opacity="0.5" d="M108.91 64.647C108.03 66.207 108.17 73.987 108.37 79.647C110.5 76.907 114.89 71.727 117.43 72.707C120.67 73.957 121.91 83.167 121.91 83.167L119.72 59.327H119.58C119.58 59.327 110.25 62.327 108.91 64.647Z" fill="white"/>
<path d="M119.58 59.3271C119.58 59.3271 110.25 62.3271 108.91 64.6571C107.57 66.9871 108.58 83.3271 108.58 85.3271C108.58 87.3271 109.75 84.1571 110.75 81.8271C111.75 79.4971 115.25 75.9871 116.41 76.3271C117.57 76.6671 118.25 77.9871 118.25 80.1571C118.25 82.3271 120.91 85.3271 123.25 86.9871C125.59 88.6471 127.75 90.3271 127.75 90.3271C127.75 90.3271 132.58 83.3271 133.75 81.4871C134.92 79.6471 134.75 75.8271 134.91 74.4871C135.07 73.1471 138.08 78.1571 138.75 76.8271C139.42 75.4971 137.25 74.3271 134.91 70.6571C132.57 66.9871 133.25 63.1571 129.75 60.4871C126.25 57.8171 122.25 58.6471 119.58 59.3271Z" stroke="#263238" stroke-linecap="round" stroke-linejoin="round"/>
<path d="M97.4999 126.897C97.4999 126.897 91.7499 118.647 84.7499 117.897C77.7499 117.147 69.2499 122.897 68.9999 124.897C68.7499 126.897 66.9999 137.647 68.2499 139.147C69.4999 140.647 74.2499 141.897 83.4999 138.897C92.7499 135.897 96.4999 132.147 97.4999 126.897Z" fill="white"/>
<path d="M74.1099 138.887C74.1099 138.887 72.1099 133.167 73.1099 131.177C74.1099 129.187 78.1099 126.177 80.5799 123.177C83.0499 120.177 74.7499 124.867 74.3499 123.177C74.0399 121.817 78.7399 119.097 80.5899 118.087C74.7699 119.207 69.1999 123.257 68.9999 124.867C68.7499 126.867 66.9999 137.617 68.2499 139.117C68.8899 139.887 70.4799 140.597 73.1299 140.687C73.7299 139.657 74.1099 138.887 74.1099 138.887Z" fill="#5C33F6"/>
<path opacity="0.5" d="M74.1099 138.887C74.1099 138.887 72.1099 133.167 73.1099 131.177C74.1099 129.187 78.1099 126.177 80.5799 123.177C83.0499 120.177 74.7499 124.867 74.3499 123.177C74.0399 121.817 78.7399 119.097 80.5899 118.087C74.7699 119.207 69.1999 123.257 68.9999 124.867C68.7499 126.867 66.9999 137.617 68.2499 139.117C68.8899 139.887 70.4799 140.597 73.1299 140.687C73.7299 139.657 74.1099 138.887 74.1099 138.887Z" fill="white"/>
<path d="M97.4999 126.897C97.4999 126.897 91.7499 118.647 84.7499 117.897C77.7499 117.147 69.2499 122.897 68.9999 124.897C68.7499 126.897 66.9999 137.647 68.2499 139.147C69.4999 140.647 74.2499 141.897 83.4999 138.897C92.7499 135.897 96.4999 132.147 97.4999 126.897Z" stroke="#263238" stroke-linecap="round" stroke-linejoin="round"/>
<path d="M77.9999 129.147C77.9999 129.147 68.6199 132.867 68.2499 140.147C68.0399 144.147 74.7499 145.897 81.7499 145.897C88.7499 145.897 98.7499 137.147 105.25 133.397C111.75 129.647 126.75 120.897 128.5 120.147C130.25 119.397 136.25 121.397 138.75 122.147C141.133 122.658 143.563 122.909 146 122.897C146 122.897 149.5 128.397 151.25 128.397C153 128.397 147.5 120.147 146.75 118.397C146 116.647 133.75 112.647 132.25 112.647C130.75 112.647 95.7499 121.397 90.4999 123.397C85.2499 125.397 77.9999 129.147 77.9999 129.147Z" fill="white"/>
<path d="M97.6099 128.107C111.9 120.957 132.25 112.647 132.25 112.647C130.75 112.647 95.7499 121.397 90.4999 123.397C85.2499 125.397 77.9999 129.147 77.9999 129.147C77.9999 129.147 68.6199 132.867 68.2499 140.147C68.0399 144.147 74.7499 145.897 81.7499 145.897C88.7499 145.897 98.7499 137.147 105.25 133.397L109.19 131.117C99.6399 132.327 86.8699 133.467 97.6099 128.107Z" fill="#5C33F6"/>
<path opacity="0.5" d="M97.6099 128.107C111.9 120.957 132.25 112.647 132.25 112.647C130.75 112.647 95.7499 121.397 90.4999 123.397C85.2499 125.397 77.9999 129.147 77.9999 129.147C77.9999 129.147 68.6199 132.867 68.2499 140.147C68.0399 144.147 74.7499 145.897 81.7499 145.897C88.7499 145.897 98.7499 137.147 105.25 133.397L109.19 131.117C99.6399 132.327 86.8699 133.467 97.6099 128.107Z" fill="white"/>
<path d="M77.9999 129.147C77.9999 129.147 68.6199 132.867 68.2499 140.147C68.0399 144.147 74.7499 145.897 81.7499 145.897C88.7499 145.897 98.7499 137.147 105.25 133.397C111.75 129.647 126.75 120.897 128.5 120.147C130.25 119.397 136.25 121.397 138.75 122.147C141.133 122.658 143.563 122.909 146 122.897C146 122.897 149.5 128.397 151.25 128.397C153 128.397 147.5 120.147 146.75 118.397C146 116.647 133.75 112.647 132.25 112.647C130.75 112.647 95.7499 121.397 90.4999 123.397C85.2499 125.397 77.9999 129.147 77.9999 129.147Z" stroke="#263238" stroke-linecap="round" stroke-linejoin="round"/>
<path d="M151.12 73.5471L143.5 116.397L198.5 116.647L206.68 76.007C206.748 75.6485 206.738 75.2794 206.65 74.9252C206.562 74.5711 206.398 74.2401 206.17 73.9551C205.942 73.6701 205.655 73.4378 205.329 73.2742C205.003 73.1105 204.645 73.0194 204.28 73.007L153.68 71.4871C153.077 71.4674 152.488 71.6645 152.018 72.0424C151.548 72.4204 151.23 72.9542 151.12 73.5471V73.5471Z" fill="white" stroke="#263238" stroke-linecap="round" stroke-linejoin="round"/>
<path d="M143.5 116.397L116.72 135.337L177.97 133.587L198.5 116.647L143.5 116.397Z" fill="white"/>
<path d="M143.5 116.397L116.72 135.337L177.97 133.587L198.5 116.647L143.5 116.397Z" fill="#5C33F6"/>
<path opacity="0.5" d="M143.5 116.397L116.72 135.337L177.97 133.587L198.5 116.647L143.5 116.397Z" fill="white"/>
<path d="M143.5 116.397L116.72 135.337L177.97 133.587L198.5 116.647L143.5 116.397Z" stroke="#263238" stroke-linecap="round" stroke-linejoin="round"/>
<path d="M163.75 135.147C163.75 135.147 185.75 115.897 207.5 109.397C229.25 102.897 233.75 103.897 233.25 113.647C232.75 123.397 222.25 174.397 215.25 187.397C208.25 200.397 199.5 224.147 199.75 228.647C200 233.147 208.5 246.397 216 251.147C223.5 255.897 222.75 261.647 218 262.647C213.25 263.647 207.75 265.397 191.5 254.897C175.25 244.397 168.5 229.397 169.5 225.647C170.5 221.897 181 216.897 185.25 209.397C189.5 201.897 196.5 173.897 197 161.147C197.406 153.098 199.094 145.165 202 137.647C202 137.647 174.5 142.647 166.5 147.647L163.75 135.147Z" fill="white"/>
<path d="M163.75 135.147C163.75 135.147 185.75 115.897 207.5 109.397C229.25 102.897 233.75 103.897 233.25 113.647C232.75 123.397 222.25 174.397 215.25 187.397C208.25 200.397 199.5 224.147 199.75 228.647C200 233.147 208.5 246.397 216 251.147C223.5 255.897 222.75 261.647 218 262.647C213.25 263.647 207.75 265.397 191.5 254.897C175.25 244.397 168.5 229.397 169.5 225.647C170.5 221.897 181 216.897 185.25 209.397C189.5 201.897 196.5 173.897 197 161.147C197.406 153.098 199.094 145.165 202 137.647C202 137.647 174.5 142.647 166.5 147.647L163.75 135.147Z" fill="#5C33F6"/>
<path opacity="0.5" d="M163.75 135.147C163.75 135.147 185.75 115.897 207.5 109.397C229.25 102.897 233.75 103.897 233.25 113.647C232.75 123.397 222.25 174.397 215.25 187.397C208.25 200.397 199.5 224.147 199.75 228.647C200 233.147 208.5 246.397 216 251.147C223.5 255.897 222.75 261.647 218 262.647C213.25 263.647 207.75 265.397 191.5 254.897C175.25 244.397 168.5 229.397 169.5 225.647C170.5 221.897 181 216.897 185.25 209.397C189.5 201.897 196.5 173.897 197 161.147C197.406 153.098 199.094 145.165 202 137.647C202 137.647 174.5 142.647 166.5 147.647L163.75 135.147Z" fill="white"/>
<path d="M163.75 135.147C163.75 135.147 185.75 115.897 207.5 109.397C229.25 102.897 233.75 103.897 233.25 113.647C232.75 123.397 222.25 174.397 215.25 187.397C208.25 200.397 199.5 224.147 199.75 228.647C200 233.147 208.5 246.397 216 251.147C223.5 255.897 222.75 261.647 218 262.647C213.25 263.647 207.75 265.397 191.5 254.897C175.25 244.397 168.5 229.397 169.5 225.647C170.5 221.897 181 216.897 185.25 209.397C189.5 201.897 196.5 173.897 197 161.147C197.406 153.098 199.094 145.165 202 137.647C202 137.647 174.5 142.647 166.5 147.647L163.75 135.147Z" stroke="#263238" stroke-linecap="round" stroke-linejoin="round"/>
<path d="M185.25 209.397C184.93 209.957 184.57 210.497 184.19 211.037C189.361 211.524 194.264 213.567 198.25 216.897C199.449 217.938 200.59 219.043 201.67 220.207C205.3 208.92 209.841 197.948 215.25 187.397C222.25 174.397 232.75 123.397 233.25 113.647C233.75 103.897 229.25 102.897 207.5 109.397C185.75 115.897 163.75 135.147 163.75 135.147L166.5 147.647C174.5 142.647 202 137.647 202 137.647C199.094 145.165 197.406 153.098 197 161.147C196.5 173.897 189.5 201.897 185.25 209.397Z" fill="white" stroke="#263238" stroke-linecap="round" stroke-linejoin="round"/>
<path d="M185.25 209.397C184.93 209.957 184.57 210.497 184.19 211.037C189.361 211.524 194.264 213.567 198.25 216.897C199.449 217.938 200.59 219.043 201.67 220.207C206.46 213.767 211.85 193.457 217.93 185.097C233.64 163.507 232.75 123.397 233.25 113.647C233.75 103.897 229.25 102.897 207.5 109.397C185.75 115.897 163.75 135.147 163.75 135.147L166.5 147.647C174.5 142.647 202 137.647 202 137.647C199.094 145.165 197.406 153.098 197 161.147C196.5 173.897 189.5 201.897 185.25 209.397Z" fill="#263238"/>
<path opacity="0.53" d="M185.25 209.397C184.93 209.957 184.57 210.497 184.19 211.037C189.361 211.524 194.264 213.567 198.25 216.897C199.449 217.938 200.59 219.043 201.67 220.207C206.46 213.767 211.85 193.457 217.93 185.097C233.64 163.507 232.75 123.397 233.25 113.647C233.75 103.897 229.25 102.897 207.5 109.397C185.75 115.897 163.75 135.147 163.75 135.147L166.5 147.647C174.5 142.647 202 137.647 202 137.647C199.094 145.165 197.406 153.098 197 161.147C196.5 173.897 189.5 201.897 185.25 209.397Z" fill="white"/>
<path opacity="0.14" d="M222.68 112.327C222.29 108.777 183.62 125.147 167.31 132.207C165.05 134.007 163.75 135.147 163.75 135.147L166.5 147.647C174.5 142.647 202 137.647 202 137.647C199.094 145.165 197.406 153.098 197 161.147C196.5 173.897 189.5 201.897 185.25 209.397C184.93 209.957 184.57 210.497 184.19 211.037C186.944 211.332 189.639 212.03 192.19 213.107C198.18 200.327 204.63 185.457 207.68 173.827C213.18 152.827 223.18 116.827 222.68 112.327Z" fill="black"/>
<path d="M202 137.647C202 137.647 209.5 122.397 216 116.147" stroke="#263238" stroke-linecap="round" stroke-linejoin="round"/>
<path d="M185.25 209.397C184.93 209.957 184.57 210.497 184.19 211.037C189.361 211.524 194.264 213.567 198.25 216.897C199.449 217.938 200.59 219.043 201.67 220.207C206.46 213.767 211.85 193.457 217.93 185.097C233.64 163.507 232.75 123.397 233.25 113.647C233.75 103.897 229.25 102.897 207.5 109.397C185.75 115.897 163.75 135.147 163.75 135.147L166.5 147.647C174.5 142.647 202 137.647 202 137.647C199.094 145.165 197.406 153.098 197 161.147C196.5 173.897 189.5 201.897 185.25 209.397Z" stroke="#263238" stroke-linecap="round" stroke-linejoin="round"/>
<path d="M130.79 155.327C138.843 154.959 146.804 153.461 154.44 150.877C165.75 146.757 145.18 139.217 137.3 143.337C135.098 144.405 133.286 146.135 132.119 148.286C130.951 150.437 130.486 152.899 130.79 155.327V155.327Z" fill="#263238" stroke="#263238" stroke-linecap="round" stroke-linejoin="round"/>
<path d="M98.2499 139.147C98.2499 139.147 90.2499 143.647 87.4999 148.647C84.7499 153.647 96.5799 161.977 109.08 161.477C121.58 160.977 144.5 147.397 144.5 147.397C144.5 147.397 144.75 169.397 149 177.397C153.25 185.397 172.75 204.897 180.5 209.897C188.25 214.897 214.25 233.647 218.25 236.647C222.25 239.647 229.75 245.147 231.5 245.397C233.25 245.647 251.5 223.397 255.75 215.897C260 208.397 263.75 192.647 262.25 189.147C260.75 185.647 257.75 188.647 254.75 191.147C251.75 193.647 224.25 211.897 221.75 213.147C220.385 213.848 218.963 214.434 217.5 214.897C217.5 214.897 195 193.397 183 176.897C171 160.397 170 139.147 165.5 131.147C161 123.147 154.5 119.647 144.75 120.647C135 121.647 114.75 126.897 98.2499 139.147Z" fill="white"/>
<path d="M204.03 226.327C210.71 231.107 216.52 235.327 218.25 236.627C222.25 239.627 229.75 245.127 231.5 245.377C232.12 245.467 234.82 242.717 238.23 238.807L209.6 220.387L204.03 226.327Z" fill="#5C33F6"/>
<path opacity="0.5" d="M204.03 226.327C210.71 231.107 216.52 235.327 218.25 236.627C222.25 239.627 229.75 245.127 231.5 245.377C232.12 245.467 234.82 242.717 238.23 238.807L209.6 220.387L204.03 226.327Z" fill="white"/>
<path d="M98.2499 139.147C98.2499 139.147 90.2499 143.647 87.4999 148.647C84.7499 153.647 96.5799 161.977 109.08 161.477C121.58 160.977 144.5 147.397 144.5 147.397C144.5 147.397 144.75 169.397 149 177.397C153.25 185.397 172.75 204.897 180.5 209.897C188.25 214.897 214.25 233.647 218.25 236.647C222.25 239.647 229.75 245.147 231.5 245.397C233.25 245.647 251.5 223.397 255.75 215.897C260 208.397 263.75 192.647 262.25 189.147C260.75 185.647 257.75 188.647 254.75 191.147C251.75 193.647 224.25 211.897 221.75 213.147C220.385 213.848 218.963 214.434 217.5 214.897C217.5 214.897 195 193.397 183 176.897C171 160.397 170 139.147 165.5 131.147C161 123.147 154.5 119.647 144.75 120.647C135 121.647 114.75 126.897 98.2499 139.147Z" stroke="#263238" stroke-linecap="round" stroke-linejoin="round"/>
<path d="M215.95 213.397C210.66 208.237 190.83 181.627 183 166.327C171.53 143.907 170.29 136.267 165.79 128.267C161.29 120.267 154.5 119.647 144.79 120.647C135.08 121.647 117.59 123.457 96.19 135.597C96.19 135.597 87.19 140.477 84.45 145.477C81.71 150.477 91.72 163.067 109.12 161.477C121.58 160.337 144.54 147.397 144.54 147.397C144.54 147.397 144.79 169.397 149.04 177.397C153.29 185.397 172.79 204.897 180.54 209.897C185.45 213.067 197.7 221.767 207.03 228.467C209.33 220.097 213.46 215.517 215.95 213.397Z" fill="#263238"/>
<path opacity="0.53" d="M215.95 213.397C210.66 208.237 190.83 181.627 183 166.327C171.53 143.907 170.29 136.267 165.79 128.267C161.29 120.267 154.5 119.647 144.79 120.647C135.08 121.647 117.59 123.457 96.19 135.597C96.19 135.597 87.19 140.477 84.45 145.477C81.71 150.477 91.72 163.067 109.12 161.477C121.58 160.337 144.54 147.397 144.54 147.397C144.54 147.397 144.79 169.397 149.04 177.397C153.29 185.397 172.79 204.897 180.54 209.897C185.45 213.067 197.7 221.767 207.03 228.467C209.33 220.097 213.46 215.517 215.95 213.397Z" fill="white"/>
<path opacity="0.14" d="M165.68 177.827C158.18 158.827 162.68 120.827 141.68 125.827C126.38 129.467 98.33 142.407 84.24 149.157C85.91 154.897 95.11 162.757 109.08 161.477C121.54 160.337 144.5 147.397 144.5 147.397C144.5 147.397 144.75 169.397 149 177.397C153.25 185.397 172.75 204.897 180.5 209.897C185.41 213.067 197.66 221.767 206.99 228.467C207.793 225.54 208.966 222.727 210.48 220.097C191.86 206.327 169.87 188.437 165.68 177.827Z" fill="black"/>
<path d="M144.5 147.397L143.75 134.397" stroke="#263238" stroke-linecap="round" stroke-linejoin="round"/>
<path d="M215.95 213.397C210.66 208.237 190.83 181.627 183 166.327C171.53 143.907 170.29 136.267 165.79 128.267C161.29 120.267 154.5 119.647 144.79 120.647C135.08 121.647 117.59 123.457 96.19 135.597C96.19 135.597 87.19 140.477 84.45 145.477C81.71 150.477 91.72 163.067 109.12 161.477C121.58 160.337 144.54 147.397 144.54 147.397C144.54 147.397 144.79 169.397 149.04 177.397C153.29 185.397 172.79 204.897 180.54 209.897C185.45 213.067 197.7 221.767 207.03 228.467C209.33 220.097 213.46 215.517 215.95 213.397Z" stroke="#263238" stroke-linecap="round" stroke-linejoin="round"/>
<path d="M218.25 236.647C222.25 239.647 229.75 245.147 231.5 245.397C233.25 245.647 251.5 223.397 255.75 215.897C260 208.397 263.75 192.647 262.25 189.147C260.75 185.647 257.75 188.647 254.75 191.147C251.75 193.647 224.25 211.897 221.75 213.147C221.09 213.477 220.49 213.747 219.96 213.977C219.24 215.347 218.36 217.467 218.96 218.897C219.96 221.147 224.21 224.147 224.21 224.147L216.64 235.487L218.25 236.647Z" fill="#263238" stroke="#263238" stroke-linecap="round" stroke-linejoin="round"/>
<path d="M255.75 215.897C260 208.397 263.75 192.647 262.25 189.147C261.38 187.147 260.01 187.277 258.42 188.257C259.47 192.927 258.42 201.937 253.25 211.647C248.64 220.307 234.4 235.647 227.25 243.067C228.553 244.047 229.991 244.832 231.52 245.397C233.25 245.647 251.5 223.397 255.75 215.897Z" fill="white"/>
<path d="M231.75 245.327L231.97 245.217L232.03 245.167C232.151 245.098 232.265 245.018 232.37 244.927L232.49 244.827L232.78 244.587L232.94 244.437L233.33 244.077L233.57 243.847L233.9 243.527L234.18 243.247L234.46 242.967L235.17 242.217L235.29 242.097L235.73 241.617L235.91 241.427C236.43 240.857 236.99 240.237 237.57 239.577V239.527L238.19 238.827L233.82 236.017C231.34 238.717 229.03 241.157 227.19 243.067L227.86 243.507L227.96 243.567L228.58 243.957L229.58 244.527L229.86 244.687L230.14 244.837L230.46 244.997L230.67 245.097C230.77 245.147 230.874 245.191 230.98 245.227L231.13 245.287C231.245 245.335 231.366 245.369 231.49 245.387C231.552 245.403 231.618 245.403 231.68 245.387L231.75 245.327Z" fill="#5C33F6"/>
<path opacity="0.5" d="M231.75 245.327L231.97 245.217L232.03 245.167C232.151 245.098 232.265 245.018 232.37 244.927L232.49 244.827L232.78 244.587L232.94 244.437L233.33 244.077L233.57 243.847L233.9 243.527L234.18 243.247L234.46 242.967L235.17 242.217L235.29 242.097L235.73 241.617L235.91 241.427C236.43 240.857 236.99 240.237 237.57 239.577V239.527L238.19 238.827L233.82 236.017C231.34 238.717 229.03 241.157 227.19 243.067L227.86 243.507L227.96 243.567L228.58 243.957L229.58 244.527L229.86 244.687L230.14 244.837L230.46 244.997L230.67 245.097C230.77 245.147 230.874 245.191 230.98 245.227L231.13 245.287C231.245 245.335 231.366 245.369 231.49 245.387C231.552 245.403 231.618 245.403 231.68 245.387L231.75 245.327Z" fill="white"/>
<path d="M255.75 215.897C260 208.397 263.75 192.647 262.25 189.147C261.38 187.147 260.01 187.277 258.42 188.257C259.47 192.927 258.42 201.937 253.25 211.647C248.64 220.307 234.4 235.647 227.25 243.067C228.553 244.047 229.991 244.832 231.52 245.397C233.25 245.647 251.5 223.397 255.75 215.897Z" stroke="#263238" stroke-linecap="round" stroke-linejoin="round"/>
<path d="M216 251.147C208.5 246.397 200 233.147 199.75 228.647C199.739 228.154 199.779 227.662 199.87 227.177C198.377 227.225 196.936 227.739 195.75 228.647C192.672 225.854 189.415 223.266 186 220.897C183.25 219.313 180.168 218.392 177 218.207C173.37 221.207 170 223.607 169.47 225.647C168.47 229.397 175.22 244.397 191.47 254.897C207.72 265.397 213.22 263.647 217.97 262.647C222.72 261.647 223.5 255.897 216 251.147Z" fill="#263238" stroke="#263238" stroke-linecap="round" stroke-linejoin="round"/>
<path d="M216 251.147C213.515 249.463 211.274 247.444 209.34 245.147C204.18 242.947 197.29 240.147 191.25 236.387C184.75 232.387 186.25 229.887 182.5 226.137C179.62 223.257 173.96 222.887 171.5 222.867C170.612 223.608 169.924 224.561 169.5 225.637C168.5 229.387 175.25 244.387 191.5 254.887C207.75 265.387 213.25 263.637 218 262.637C222.75 261.637 223.5 255.897 216 251.147Z" fill="white"/>
<path d="M216 251.147C213.515 249.463 211.274 247.444 209.34 245.147C204.18 242.947 197.29 240.147 191.25 236.387C184.75 232.387 186.25 229.887 182.5 226.137C179.62 223.257 173.96 222.887 171.5 222.867C170.612 223.608 169.924 224.561 169.5 225.637C168.5 229.387 175.25 244.387 191.5 254.887C207.75 265.387 213.25 263.637 218 262.637C222.75 261.637 223.5 255.897 216 251.147Z" fill="#5C33F6"/>
<path opacity="0.5" d="M216 251.147C213.515 249.463 211.274 247.444 209.34 245.147C204.18 242.947 197.29 240.147 191.25 236.387C184.75 232.387 186.25 229.887 182.5 226.137C179.62 223.257 173.96 222.887 171.5 222.867C170.612 223.608 169.924 224.561 169.5 225.637C168.5 229.387 175.25 244.387 191.5 254.887C207.75 265.387 213.25 263.637 218 262.637C222.75 261.637 223.5 255.897 216 251.147Z" fill="white"/>
<path d="M216 251.147C213.515 249.463 211.274 247.444 209.34 245.147C204.18 242.947 197.29 240.147 191.25 236.387C184.75 232.387 186.25 229.887 182.5 226.137C179.62 223.257 173.96 222.887 171.5 222.867C170.612 223.608 169.924 224.561 169.5 225.637C168.5 229.387 175.25 244.387 191.5 254.887C207.75 265.387 213.25 263.637 218 262.637C222.75 261.637 223.5 255.897 216 251.147Z" stroke="#263238" stroke-linecap="round" stroke-linejoin="round"/>
<path d="M217.25 252.897C210.75 249.147 197.5 246.647 189 240.897C180.5 235.147 182.75 230.147 176.5 226.147C175.501 225.401 174.305 224.965 173.06 224.893C171.815 224.822 170.577 225.119 169.5 225.747C168.63 229.647 175.4 244.477 191.5 254.897C207.6 265.317 213.25 263.647 218 262.647C221.16 261.977 222.53 259.217 220.9 256.047C219.88 254.789 218.644 253.722 217.25 252.897V252.897Z" fill="#263238"/>
<path opacity="0.53" d="M217.25 252.897C210.75 249.147 197.5 246.647 189 240.897C180.5 235.147 182.75 230.147 176.5 226.147C175.501 225.401 174.305 224.965 173.06 224.893C171.815 224.822 170.577 225.119 169.5 225.747C168.63 229.647 175.4 244.477 191.5 254.897C207.6 265.317 213.25 263.647 218 262.647C221.16 261.977 222.53 259.217 220.9 256.047C219.88 254.789 218.644 253.722 217.25 252.897V252.897Z" fill="white"/>
<path d="M217.25 252.897C210.75 249.147 197.5 246.647 189 240.897C180.5 235.147 182.75 230.147 176.5 226.147C175.501 225.401 174.305 224.965 173.06 224.893C171.815 224.822 170.577 225.119 169.5 225.747C168.63 229.647 175.4 244.477 191.5 254.897C207.6 265.317 213.25 263.647 218 262.647C221.16 261.977 222.53 259.217 220.9 256.047C219.88 254.789 218.644 253.722 217.25 252.897V252.897Z" stroke="#263238" stroke-linecap="round" stroke-linejoin="round"/>
<path d="M92.67 205.077C92.67 205.077 97.47 199.247 98.15 203.707C98.83 208.167 97.81 216.387 94.38 219.467C90.95 222.547 89.24 217.757 89.24 217.757L91.3 215.017C91.3 215.017 93.01 218.447 94.38 212.957C95.75 207.467 91.64 208.157 91.64 208.157L92.67 205.077Z" fill="white" stroke="#263238" stroke-linecap="round" stroke-linejoin="round"/>
<path d="M89.0001 227.017C86.1601 229.117 76.9001 229.117 74.0701 227.017C68.0701 222.567 69.0701 201.067 69.0701 201.067H93.9301C93.9301 201.067 95.0101 222.567 89.0001 227.017Z" fill="white" stroke="#263238" stroke-linecap="round" stroke-linejoin="round"/>
<path d="M71.79 196.847C71.79 194.147 74.3 194.147 74.3 191.437C74.3 188.727 71.79 188.727 71.79 186.027C71.79 183.327 74.3 183.317 74.3 180.607C74.3 177.897 71.79 177.897 71.79 175.187C71.79 172.477 74.3 172.477 74.3 169.767" stroke="#263238" stroke-linecap="round" stroke-linejoin="round"/>
<path d="M80.3799 196.847C80.3799 194.847 82.8899 194.847 82.8899 192.737C82.8899 190.627 80.3799 190.687 80.3799 188.627C80.3799 186.567 82.8899 186.577 82.8899 184.517C82.8899 182.457 80.3799 182.457 80.3799 180.397C80.3799 178.337 82.8899 178.347 82.8899 176.287" stroke="#263238" stroke-linecap="round" stroke-linejoin="round"/>
<path d="M89.8301 196.847C89.8301 194.147 92.3301 194.147 92.3301 191.437C92.3301 188.727 89.8301 188.727 89.8301 186.027C89.8301 183.327 92.3301 183.317 92.3301 180.607C92.3301 177.897 89.8301 177.897 89.8301 175.187C89.8301 172.477 92.3301 172.477 92.3301 169.767" stroke="#263238" stroke-linecap="round" stroke-linejoin="round"/>
<path d="M93.9501 201.067C93.9501 201.697 88.3901 202.197 81.5201 202.197C74.6501 202.197 69.0901 201.697 69.0901 201.067C69.0901 200.437 74.6501 199.937 81.5201 199.937C88.3901 199.937 93.9501 200.437 93.9501 201.067Z" fill="white" stroke="#263238" stroke-linecap="round" stroke-linejoin="round"/>
<path d="M116.9 46.327C116.9 46.327 118.07 58.957 118.56 62.947C119.05 66.937 120.16 78.397 121.31 82.187C122.46 85.977 128.73 92.567 129.31 91.047C129.89 89.527 133.01 79.217 131.77 73.047C130.53 66.877 130.15 61.607 130.92 60.047C131.69 58.487 134.46 56.737 134.46 56.737C131.233 55.0845 128.099 53.2585 125.07 51.267C120.65 48.327 117.52 44.997 116.9 46.327Z" fill="white"/>
<path d="M132.95 57.417L131.95 55.477C130.11 54.477 127.55 52.997 125.12 51.367C120.67 48.367 117.54 44.997 116.92 46.367C116.92 46.367 118.09 58.997 118.58 62.987C119.07 66.977 120.18 78.437 121.33 82.227C121.722 83.3354 122.264 84.3851 122.94 85.347C121.73 77.807 123.04 64.187 123.04 64.187L132.95 57.417Z" fill="#5C33F6"/>
<path opacity="0.5" d="M132.95 57.417L131.95 55.477C130.11 54.477 127.55 52.997 125.12 51.367C120.67 48.367 117.54 44.997 116.92 46.367C116.92 46.367 118.09 58.997 118.58 62.987C119.07 66.977 120.18 78.437 121.33 82.227C121.722 83.3354 122.264 84.3851 122.94 85.347C121.73 77.807 123.04 64.187 123.04 64.187L132.95 57.417Z" fill="white"/>
<path d="M116.9 46.327C116.9 46.327 118.07 58.957 118.56 62.947C119.05 66.937 120.16 78.397 121.31 82.187C122.46 85.977 128.73 92.567 129.31 91.047C129.89 89.527 133.01 79.217 131.77 73.047C130.53 66.877 130.15 61.607 130.92 60.047C131.69 58.487 134.46 56.737 134.46 56.737C131.233 55.0845 128.099 53.2585 125.07 51.267C120.65 48.327 117.52 44.997 116.9 46.327Z" stroke="#263238" stroke-linecap="round" stroke-linejoin="round"/>
<path d="M116.44 48.1571C116.44 48.1571 123.64 54.1571 129.16 56.3571C134.68 58.5571 143.16 58.4171 144.37 55.5471C145.58 52.6771 142.27 29.9471 139.42 23.9671C136.57 17.9871 133.53 17.8871 128.5 17.4271C123.47 16.9671 113.41 21.0671 111.64 25.9271C109.87 30.7871 111.89 37.6671 113.35 41.7471C114.122 43.9988 115.159 46.1506 116.44 48.1571V48.1571Z" fill="white"/>
<path d="M129.37 47.8871C126.82 40.3271 126.18 28.4271 126.18 25.2571C126.18 22.8071 132.56 20.1171 135.47 19.0171C133.56 17.8371 131.34 17.6871 128.47 17.4271C123.47 16.9771 113.38 21.0671 111.61 25.9271C109.84 30.7871 111.86 37.6671 113.32 41.7471C114.092 43.9988 115.129 46.1506 116.41 48.1571C116.41 48.1571 123.61 54.1571 129.13 56.3571C132.956 57.8048 137.099 58.2019 141.13 57.5071C137.18 56.0171 131.07 52.9371 129.37 47.8871Z" fill="#5C33F6"/>
<path opacity="0.5" d="M129.37 47.8871C126.82 40.3271 126.18 28.4271 126.18 25.2571C126.18 22.8071 132.56 20.1171 135.47 19.0171C133.56 17.8371 131.34 17.6871 128.47 17.4271C123.47 16.9771 113.38 21.0671 111.61 25.9271C109.84 30.7871 111.86 37.6671 113.32 41.7471C114.092 43.9988 115.129 46.1506 116.41 48.1571C116.41 48.1571 123.61 54.1571 129.13 56.3571C132.956 57.8048 137.099 58.2019 141.13 57.5071C137.18 56.0171 131.07 52.9371 129.37 47.8871Z" fill="white"/>
<path d="M116.44 48.1571C116.44 48.1571 123.64 54.1571 129.16 56.3571C134.68 58.5571 143.16 58.4171 144.37 55.5471C145.58 52.6771 142.27 29.9471 139.42 23.9671C136.57 17.9871 133.53 17.8871 128.5 17.4271C123.47 16.9671 113.41 21.0671 111.64 25.9271C109.87 30.7871 111.89 37.6671 113.35 41.7471C114.122 43.9988 115.159 46.1506 116.44 48.1571V48.1571Z" stroke="#263238" stroke-linecap="round" stroke-linejoin="round"/>
<path d="M139.96 33.3271C140.08 36.2071 138.27 38.6171 135.96 38.7071C133.65 38.7971 131.63 36.5471 131.52 33.7071C131.41 30.8671 133.21 28.4171 135.52 28.3171C137.83 28.2171 139.85 30.4171 139.96 33.3271Z" stroke="#263238" stroke-linecap="round" stroke-linejoin="round"/>
<path d="M145.62 32.2071C145.74 35.0871 144.81 37.4571 143.55 37.5071C142.29 37.5571 141.17 35.2671 141.06 32.3871C140.95 29.5071 141.88 27.1271 143.14 27.0771C144.4 27.0271 145.51 29.3271 145.62 32.2071Z" stroke="#263238" stroke-linecap="round" stroke-linejoin="round"/>
<path d="M140.26 32.2671C140.26 32.2671 148.52 33.8371 147.72 35.8271C146.92 37.8171 141.34 39.9671 141.34 39.9671" fill="white"/>
<path d="M140.26 32.2671C140.26 32.2671 148.52 33.8371 147.72 35.8271C146.92 37.8171 141.34 39.9671 141.34 39.9671" stroke="#263238" stroke-linecap="round" stroke-linejoin="round"/>
<path d="M139.75 31.3271C139.75 31.3271 139.87 30.3271 141.14 30.9571" stroke="#263238" stroke-linecap="round" stroke-linejoin="round"/>
<path d="M131.26 34.1071L116.24 40.0171" stroke="#263238" stroke-linecap="round" stroke-linejoin="round"/>
<path d="M131.46 29.2471C131.776 28.5322 132.305 27.9319 132.974 27.5276C133.643 27.1233 134.42 26.9346 135.2 26.9871" stroke="#263238" stroke-width="2" stroke-linecap="round" stroke-linejoin="round"/>
<path d="M141.46 27.0571L139.15 27.9271" stroke="#263238" stroke-width="2" stroke-linecap="round" stroke-linejoin="round"/>
<path d="M134.32 43.8271C134.32 43.8271 137.32 43.0471 139.02 44.8271" stroke="#263238" stroke-linecap="round" stroke-linejoin="round"/>
<path d="M136.25 33.8471C136.39 34.8471 136.25 35.707 135.84 35.757C135.43 35.807 135.07 35.0371 134.93 34.0271C134.79 33.0171 134.98 32.1771 135.35 32.1271C135.72 32.0771 136.12 32.8471 136.25 33.8471Z" fill="#263238"/>
<path d="M117.64 40.0571C117.64 40.0571 116.64 42.0571 119.46 42.1571C122.28 42.2571 124.2 40.8871 122.83 39.1571C121.46 37.4271 119.43 35.8071 121.52 33.5471C123.61 31.2871 127.67 29.3871 125.39 26.8671C123.11 24.3471 114.72 26.6371 116.82 24.5971C118.92 22.5571 128.62 20.4271 132.98 20.6971C137.34 20.9671 145.48 17.5871 147.27 13.1671C149.06 8.74707 146.56 0.577076 140.7 1.01708C134.84 1.45708 130.47 6.64708 127.87 7.01708C125.27 7.38708 119.94 4.49708 115.47 7.01708C111 9.53708 110.85 16.7771 110.47 17.6671C110.09 18.5571 104.03 19.8771 102.96 26.0071C102.558 28.4784 102.73 31.009 103.462 33.4035C104.193 35.798 105.465 37.9923 107.18 39.8171C109.69 42.5471 110.82 43.5871 110.82 43.5871L117.64 40.0571Z" fill="#263238" stroke="#263238" stroke-linecap="round" stroke-linejoin="round"/>
<path d="M104.92 28.9771C104.868 29.9073 105.09 30.8323 105.56 31.6371" stroke="white" stroke-width="0.75" stroke-linecap="round" stroke-linejoin="round"/>
<path d="M130.41 13.1471C130.41 13.1471 128.23 8.37708 133.79 8.37708C139.35 8.37708 140.15 15.3771 134.39 17.9171C128.63 20.4571 116.1 21.0971 109.34 24.0871C108.013 24.6063 106.833 25.4403 105.9 26.5171" stroke="white" stroke-width="0.75" stroke-linecap="round" stroke-linejoin="round"/>
<path d="M120.34 30.087C118.34 30.807 115.75 31.807 113.12 33.027C107.55 35.617 108.74 38.197 108.74 38.197" stroke="white" stroke-width="0.75" stroke-linecap="round" stroke-linejoin="round"/>
<path d="M124.05 28.8571C124.05 28.8571 123.56 28.9971 122.73 29.2671" stroke="white" stroke-width="0.75" stroke-linecap="round" stroke-linejoin="round"/>
<path d="M118.59 42.1971C118.59 42.1971 115.36 37.5371 111.96 39.4071C108.56 41.2771 111.2 47.9271 113.25 50.2371C115.3 52.5471 119.25 48.2371 119.66 47.1571" fill="white"/>
<path d="M118.59 42.1971C118.59 42.1971 115.36 37.5371 111.96 39.4071C108.56 41.2771 111.2 47.9271 113.25 50.2371C115.3 52.5471 119.25 48.2371 119.66 47.1571" fill="#5C33F6"/>
<path opacity="0.5" d="M118.59 42.1971C118.59 42.1971 115.36 37.5371 111.96 39.4071C108.56 41.2771 111.2 47.9271 113.25 50.2371C115.3 52.5471 119.25 48.2371 119.66 47.1571" fill="white"/>
<path d="M118.59 42.1971C118.59 42.1971 115.36 37.5371 111.96 39.4071C108.56 41.2771 111.2 47.9271 113.25 50.2371C115.3 52.5471 119.25 48.2371 119.66 47.1571" stroke="#263238" stroke-linecap="round" stroke-linejoin="round"/>
<path d="M77.8 37.947H6.12C3.2923 37.947 1 40.2393 1 43.067V95.467C1 98.2947 3.2923 100.587 6.12 100.587H77.8C80.6277 100.587 82.92 98.2947 82.92 95.467V43.067C82.92 40.2393 80.6277 37.947 77.8 37.947Z" fill="white" stroke="#263238" stroke-linecap="round" stroke-linejoin="round"/>
<path d="M81.3601 83.0071L129.36 95.5071L81.3601 72.0071" fill="white"/>
<path d="M81.3601 83.0071L129.36 95.5071L81.3601 72.0071" stroke="#263238" stroke-linecap="round" stroke-linejoin="round"/>
<path d="M26.8901 43.967H7.62012V94.567H26.8901V43.967Z" fill="#5C33F6" stroke="#263238" stroke-linecap="round" stroke-linejoin="round"/>
<path d="M78.67 43.967H76.26V94.567H78.67V43.967Z" fill="#5C33F6" stroke="#263238" stroke-linecap="round" stroke-linejoin="round"/>
<path d="M78.67 67.097H76.26V71.417H78.67V67.097Z" fill="#263238" stroke="#263238" stroke-linecap="round" stroke-linejoin="round"/>
<path d="M32.9199 45.1671H70.8699" stroke="#263238" stroke-linecap="round" stroke-linejoin="round"/>
<path d="M32.9199 50.587H70.8699" stroke="#263238" stroke-linecap="round" stroke-linejoin="round"/>
<path d="M32.9199 56.0171H70.8699" stroke="#263238" stroke-linecap="round" stroke-linejoin="round"/>
<path d="M32.9199 61.437H70.8699" stroke="#263238" stroke-linecap="round" stroke-linejoin="round"/>
<path d="M32.9199 74.687H70.8699" stroke="#263238" stroke-linecap="round" stroke-linejoin="round"/>
<path d="M32.9199 79.5071H70.8699" stroke="#263238" stroke-linecap="round" stroke-linejoin="round"/>
<path d="M32.9199 84.327H70.8699" stroke="#263238" stroke-linecap="round" stroke-linejoin="round"/>
<path d="M32.9199 94.327H70.8699" stroke="#263238" stroke-linecap="round" stroke-linejoin="round"/>
<path d="M7.62012 94.5571L26.9001 43.967" stroke="#263238" stroke-linecap="round" stroke-linejoin="round"/>
</svg>
