<svg width="367" height="341" viewBox="0 0 367 341" fill="none" xmlns="http://www.w3.org/2000/svg">
<path d="M344.46 263.1C351.94 202.05 315.72 120.9 278.16 87.4C210.37 26.9 154.05 38.6 110.25 60.27C66.45 81.94 60.18 154.27 29.94 187C-0.299995 219.73 -17.52 263.75 28.38 307.58C74.28 351.41 111.29 329.13 159.27 326.36C207.25 323.59 270.86 345.46 305.27 326.43C329.32 313.15 341.16 290.09 344.46 263.1Z" fill="#5C33F6"/>
<path opacity="0.7" d="M344.46 263.1C351.94 202.05 315.72 120.9 278.16 87.4C210.37 26.9 154.05 38.6 110.25 60.27C66.45 81.94 60.18 154.27 29.94 187C-0.299995 219.73 -17.52 263.75 28.38 307.58C74.28 351.41 111.29 329.13 159.27 326.36C207.25 323.59 270.86 345.46 305.27 326.43C329.32 313.15 341.16 290.09 344.46 263.1Z" fill="white"/>
<path d="M154.61 260.95V36.01" stroke="#263238" stroke-linecap="round" stroke-linejoin="round"/>
<path d="M8.39001 263.18H150.28L365.85 332.76" stroke="#263238" stroke-linecap="round" stroke-linejoin="round"/>
<path d="M73 257.9H63.2V95.84H83.43L74.7 64.33H48.5L39.77 95.84H60V257.9H50.17C47.6566 257.902 45.2442 258.89 43.4511 260.651C41.658 262.413 40.6272 264.807 40.58 267.32C40.58 267.32 40.58 267.37 40.58 267.39C40.58 267.39 40.58 267.45 40.58 267.47C40.87 269.73 50.15 271.55 61.58 271.55C73.01 271.55 82.29 269.73 82.58 267.47C82.5721 264.933 81.5599 262.501 79.7647 260.708C77.9696 258.915 75.5374 257.905 73 257.9V257.9Z" fill="#263238"/>
<path d="M203.59 24.86V215.68L347.26 239.32V1.21997L203.59 24.86ZM343.53 79.5L270.53 83.64V17.34L343.53 5.71997V79.5ZM270.53 90.61L343.53 87.26V153.92L270.53 150.51V90.61ZM264.61 150.23L206 147.5V93.57L264.56 90.89L264.61 150.23ZM264.61 18.28V84L206 87.29V27.6L264.61 18.28ZM206 153.78L264.56 157.15V222.26L206 212.94V153.78ZM270.48 223.2V157.49L343.48 161.69V234.82L270.48 223.2Z" fill="#263238" stroke="#263238" stroke-linecap="round" stroke-linejoin="round"/>
<path d="M321.87 340.26C331.11 340.26 338.6 336.902 338.6 332.76C338.6 328.618 331.11 325.26 321.87 325.26C312.63 325.26 305.14 328.618 305.14 332.76C305.14 336.902 312.63 340.26 321.87 340.26Z" fill="#5C33F6"/>
<path opacity="0.5" d="M321.87 340.26C331.11 340.26 338.6 336.902 338.6 332.76C338.6 328.618 331.11 325.26 321.87 325.26C312.63 325.26 305.14 328.618 305.14 332.76C305.14 336.902 312.63 340.26 321.87 340.26Z" fill="white"/>
<path d="M302.3 221.78C304.09 222.56 308.47 222.46 308.47 222.46C308.47 222.46 307.53 219.59 307.47 219.46C306.47 217.46 303.47 214.13 301 214.46C300.594 214.533 300.208 214.69 299.866 214.919C299.523 215.149 299.231 215.446 299.009 215.794C298.787 216.141 298.638 216.53 298.573 216.937C298.508 217.344 298.527 217.761 298.63 218.16C299 219.84 300.77 221.11 302.3 221.78Z" fill="#263238"/>
<path d="M359.66 206.87C357.18 206.61 354.23 210 353.32 212.04C353.24 212.22 352.32 215.11 352.38 215.11H352.43C351.96 215.64 351.43 216.22 350.94 216.86C349.94 218.05 348.88 219.4 347.8 220.96C346.615 222.621 345.53 224.35 344.55 226.14C343.439 228.14 342.509 230.235 341.77 232.4C341.764 232.426 341.764 232.454 341.77 232.48C341.77 231.75 341.77 229.7 341.77 229.54C341.48 227.34 339.63 223.23 337.17 222.78C336.762 222.724 336.346 222.753 335.95 222.865C335.553 222.977 335.184 223.169 334.865 223.43C334.546 223.691 334.284 224.014 334.096 224.381C333.907 224.747 333.796 225.149 333.77 225.56C333.63 227.31 334.9 229.07 336.14 230.18C337.54 231.43 341.42 232.64 341.73 232.73C341.038 234.952 340.49 237.217 340.09 239.51C339.85 240.85 339.66 242.2 339.47 243.56C339.47 242.92 339.47 242.36 339.47 242.28C339.18 240.07 337.33 235.97 334.88 235.52C334.472 235.463 334.056 235.49 333.659 235.601C333.262 235.711 332.892 235.902 332.572 236.162C332.252 236.422 331.989 236.745 331.799 237.111C331.61 237.477 331.498 237.879 331.47 238.29C331.33 240.05 332.6 241.8 333.84 242.91C335.08 244.02 338.39 245.14 339.27 245.42C339.21 245.94 339.14 246.42 339.07 246.98C338.77 249.48 338.49 251.98 338.13 254.43C338 255.29 337.85 256.13 337.7 256.97C337.7 256.41 337.7 255.97 337.7 255.87C337.41 253.66 335.56 249.56 333.1 249.1C332.692 249.044 332.276 249.073 331.88 249.185C331.483 249.297 331.114 249.489 330.795 249.75C330.476 250.011 330.214 250.334 330.026 250.701C329.837 251.067 329.726 251.469 329.7 251.88C329.56 253.64 330.83 255.39 332.07 256.5C333.31 257.61 336.3 258.62 337.34 258.95C337.16 259.81 336.97 260.67 336.76 261.5C336.6 262.06 336.48 262.61 336.29 263.16C336.1 263.71 335.94 264.26 335.76 264.8C335.39 265.8 335.01 266.9 334.62 267.89C334.35 268.59 334.08 269.25 333.82 269.89C333.95 269.03 334.18 267.35 334.18 267.21C334.156 265.25 333.629 263.328 332.65 261.63C332.665 261.414 332.665 261.196 332.65 260.98C332.591 260.572 332.448 260.181 332.231 259.831C332.015 259.481 331.728 259.179 331.389 258.944C331.05 258.71 330.667 258.548 330.263 258.468C329.859 258.388 329.442 258.392 329.04 258.48C326.63 259.12 325.1 263.35 324.98 265.57C324.98 265.71 325.06 267.14 325.13 268.04C325.01 267.52 324.9 267.04 324.77 266.47C324.51 265.4 324.23 264.34 323.93 263.21C323.76 262.66 323.6 262.11 323.43 261.56C323.26 261.01 323.04 260.44 322.85 259.87C322.37 258.57 321.85 257.27 321.24 255.97C322.18 255.75 325.48 254.91 326.81 253.89C328.14 252.87 329.53 251.22 329.51 249.46C329.52 249.048 329.443 248.638 329.284 248.258C329.125 247.877 328.888 247.534 328.588 247.252C328.288 246.969 327.932 246.752 327.543 246.616C327.154 246.479 326.741 246.426 326.33 246.46C323.84 246.73 321.69 250.68 321.24 252.86C321.24 253 321.07 254.6 321 255.48C320.65 254.7 320.3 253.93 319.92 253.15C318.81 250.92 317.62 248.7 316.44 246.47C316.07 245.79 315.72 245.11 315.37 244.42C315.7 244.35 319.65 243.42 321.13 242.29C322.45 241.29 323.85 239.62 323.84 237.86C323.841 237.449 323.757 237.043 323.595 236.666C323.432 236.289 323.194 235.95 322.895 235.669C322.596 235.387 322.243 235.17 321.857 235.031C321.47 234.892 321.06 234.834 320.65 234.86C318.17 235.13 316.02 239.08 315.57 241.26C315.57 241.42 315.33 243.73 315.3 244.32C314.52 242.81 313.76 241.32 313.06 239.79C312.116 237.751 311.304 235.653 310.63 233.51C310.78 233.51 314.91 232.51 316.43 231.37C317.75 230.37 319.15 228.7 319.14 226.94C319.141 226.529 319.057 226.123 318.895 225.746C318.732 225.369 318.494 225.03 318.195 224.749C317.896 224.467 317.543 224.25 317.157 224.111C316.77 223.972 316.36 223.914 315.95 223.94C313.47 224.21 311.32 228.16 310.87 230.34C310.87 230.52 310.61 233 310.6 233.45C310.6 233.32 310.51 233.2 310.47 233.07C309.852 230.899 309.431 228.677 309.21 226.43C309.07 225.2 309.01 224 308.97 222.84C309.76 222.75 313.34 222.27 314.83 221.37C316.32 220.47 317.83 219.02 318.01 217.26C318.059 216.851 318.022 216.436 317.903 216.041C317.785 215.647 317.586 215.281 317.319 214.967C317.053 214.652 316.724 214.396 316.355 214.215C315.985 214.033 315.582 213.929 315.17 213.91C312.67 213.91 310.1 217.6 309.41 219.71C309.41 219.83 309.13 221.04 308.96 221.93C308.96 221.4 308.96 220.86 308.96 220.36C308.96 218.48 309.08 216.75 309.2 215.22C309.28 214.35 309.36 213.57 309.45 212.83C310.17 212.34 313.05 210.3 313.94 208.83C314.83 207.36 315.52 205.36 314.87 203.73C314.733 203.339 314.514 202.981 314.229 202.68C313.944 202.38 313.598 202.143 313.214 201.985C312.831 201.827 312.419 201.752 312.004 201.765C311.59 201.778 311.183 201.879 310.81 202.06C308.59 203.2 308.01 207.66 308.37 209.86C308.37 210.05 309.24 212.96 309.28 212.94C309.19 213.64 309.09 214.4 309 215.22C308.85 216.75 308.69 218.48 308.65 220.38C308.58 222.418 308.626 224.458 308.79 226.49C308.97 228.769 309.351 231.028 309.93 233.24C309.924 233.266 309.924 233.294 309.93 233.32C309.54 232.71 308.38 231.02 308.28 230.9C306.82 229.21 303.02 226.82 300.72 227.79C300.349 227.968 300.018 228.221 299.748 228.532C299.479 228.843 299.276 229.207 299.154 229.6C299.031 229.993 298.99 230.407 299.034 230.817C299.078 231.226 299.206 231.622 299.41 231.98C300.26 233.53 302.29 234.29 303.94 234.53C305.79 234.8 309.7 233.67 310.01 233.58C310.656 235.813 311.448 238.001 312.38 240.13C312.92 241.38 313.5 242.62 314.1 243.85C313.74 243.33 313.42 242.85 313.37 242.85C311.91 241.17 308.1 238.77 305.81 239.74C305.437 239.918 305.105 240.171 304.835 240.483C304.564 240.795 304.361 241.16 304.238 241.554C304.115 241.948 304.075 242.364 304.12 242.774C304.165 243.185 304.295 243.582 304.5 243.94C305.35 245.48 307.38 246.25 309.02 246.49C310.66 246.73 314.02 245.83 314.93 245.58C315.16 246.05 315.39 246.52 315.63 246.99C316.76 249.25 317.9 251.49 318.95 253.72C319.32 254.51 319.65 255.3 319.95 256.09C319.64 255.62 319.37 255.24 319.32 255.18C317.86 253.5 314.05 251.1 311.76 252.07C311.387 252.248 311.055 252.501 310.785 252.813C310.514 253.125 310.311 253.49 310.188 253.884C310.065 254.278 310.025 254.694 310.07 255.104C310.115 255.515 310.245 255.912 310.45 256.27C311.3 257.81 313.33 258.57 314.97 258.81C316.61 259.05 319.67 258.24 320.72 257.95C321.04 258.77 321.37 259.59 321.64 260.4C321.82 260.95 322.03 261.47 322.17 262.04C322.31 262.61 322.48 263.15 322.64 263.7C322.89 264.77 323.16 265.87 323.39 266.91C323.55 267.64 323.69 268.33 323.83 269.03C323.47 268.24 322.73 266.72 322.66 266.6C321.47 264.71 318.07 261.76 315.66 262.38C315.26 262.491 314.888 262.686 314.569 262.952C314.249 263.218 313.99 263.548 313.808 263.921C313.625 264.295 313.524 264.702 313.511 265.117C313.497 265.533 313.572 265.946 313.73 266.33C314.33 267.98 316.22 269.04 317.81 269.53C319.57 270.06 323.45 269.53 323.93 269.53C324.16 270.69 324.38 271.82 324.56 272.89C325.22 276.59 325.62 279.7 325.87 281.89C325.87 282.28 325.95 282.62 325.99 282.95H318.48L320.89 330.05C320.98 331.774 321.728 333.399 322.98 334.588C324.232 335.777 325.893 336.44 327.62 336.44V336.44C329.346 336.44 331.006 335.776 332.256 334.587C333.507 333.398 334.253 331.774 334.34 330.05L336.76 282.95H329.76C329.81 282.84 329.86 282.74 329.92 282.63C330.92 280.63 332.21 277.75 333.65 274.24C334.1 273.13 334.57 271.93 335.03 270.7C335.5 270.8 339.34 271.58 341.13 271.17C342.76 270.81 344.72 269.89 345.45 268.29C345.628 267.917 345.727 267.511 345.74 267.098C345.754 266.684 345.682 266.273 345.529 265.889C345.376 265.505 345.145 265.157 344.851 264.866C344.557 264.575 344.206 264.349 343.82 264.2C341.45 263.41 337.82 266.1 336.52 267.89C336.44 267.99 335.73 269.24 335.29 270.03C335.47 269.52 335.66 269.03 335.85 268.51C336.23 267.51 336.57 266.45 336.95 265.33C337.11 264.79 337.28 264.24 337.44 263.68C337.6 263.12 337.74 262.53 337.89 261.95C338.21 260.6 338.47 259.22 338.7 257.82C339.6 258.15 342.82 259.27 344.49 259.15C346.16 259.03 348.23 258.42 349.19 256.95C349.42 256.608 349.578 256.222 349.652 255.816C349.727 255.41 349.717 254.994 349.623 254.592C349.529 254.19 349.353 253.812 349.107 253.482C348.86 253.151 348.548 252.875 348.19 252.67C345.97 251.52 342 253.67 340.42 255.2C340.32 255.3 339.31 256.56 338.77 257.26C338.91 256.41 339.04 255.57 339.15 254.72C339.46 252.24 339.69 249.72 339.93 247.22L340.17 244.93C340.49 245.05 344.29 246.46 346.17 246.33C347.83 246.21 349.91 245.6 350.87 244.13C351.1 243.788 351.258 243.402 351.332 242.996C351.407 242.59 351.397 242.174 351.303 241.772C351.209 241.37 351.033 240.992 350.787 240.662C350.54 240.331 350.228 240.055 349.87 239.85C347.65 238.7 343.67 240.85 342.1 242.38C341.98 242.5 340.53 244.31 340.19 244.79C340.36 243.1 340.56 241.42 340.82 239.79C341.155 237.565 341.633 235.364 342.25 233.2C342.4 233.26 346.36 234.75 348.25 234.61C349.91 234.5 351.99 233.89 352.95 232.41C353.18 232.068 353.338 231.682 353.412 231.276C353.487 230.87 353.477 230.454 353.383 230.052C353.289 229.65 353.113 229.272 352.867 228.942C352.62 228.611 352.308 228.335 351.95 228.13C349.73 226.99 345.76 229.13 344.18 230.67C344.06 230.79 342.5 232.74 342.25 233.11C342.25 232.99 342.31 232.85 342.35 232.73C343.032 230.576 343.905 228.488 344.96 226.49C345.52 225.38 346.13 224.35 346.74 223.37C347.45 223.72 350.74 225.3 352.44 225.37C354.14 225.44 356.23 225.06 357.35 223.7C357.618 223.386 357.819 223.02 357.939 222.625C358.059 222.23 358.097 221.814 358.049 221.404C358.001 220.993 357.869 220.597 357.661 220.241C357.453 219.884 357.173 219.574 356.84 219.33C354.76 217.95 350.58 219.61 348.84 221C348.75 221.08 347.84 222 347.24 222.6L348.08 221.27C349.13 219.7 350.18 218.33 351.08 217.12C351.62 216.43 352.13 215.83 352.6 215.26C353.48 215.26 357.01 215.14 358.55 214.42C360.09 213.7 361.78 212.42 362.15 210.67C362.269 210.255 362.297 209.82 362.232 209.394C362.167 208.968 362.012 208.56 361.775 208.2C361.539 207.839 361.228 207.534 360.863 207.304C360.498 207.075 360.087 206.927 359.66 206.87V206.87ZM332.19 273.51C330.69 276.96 329.31 279.78 328.32 281.73L327.78 282.8H327.61C327.56 282.42 327.51 282 327.44 281.53C327.14 279.33 326.67 276.2 325.93 272.53C325.69 271.35 325.42 270.09 325.13 268.81C326.298 268.338 327.439 267.804 328.55 267.21C330.058 268.506 331.741 269.584 333.55 270.41C333.07 271.46 332.63 272.52 332.19 273.51V273.51Z" fill="#263238"/>
<path d="M346.59 222.74C346.59 222.74 347.38 219.83 347.41 219.64C347.72 217.43 347.01 212.99 344.77 211.9C344.392 211.74 343.985 211.66 343.575 211.664C343.164 211.668 342.759 211.756 342.384 211.923C342.009 212.09 341.673 212.332 341.395 212.634C341.117 212.936 340.904 213.292 340.77 213.68C340.17 215.34 340.93 217.37 341.84 218.77C342.88 220.41 346.58 222.74 346.59 222.74Z" fill="#263238"/>
</svg>
