<svg width="700" height="660" viewBox="0 0 700 660" fill="none" xmlns="http://www.w3.org/2000/svg">
<path d="M302.512 660C361.861 660 409.972 643.558 409.972 623.276C409.972 602.993 361.861 586.551 302.512 586.551C243.164 586.551 195.053 602.993 195.053 623.276C195.053 643.558 243.164 660 302.512 660Z" fill="#5C33F6"/>
<path opacity="0.5" d="M302.512 660C361.861 660 409.972 643.558 409.972 623.276C409.972 602.993 361.861 586.551 302.512 586.551C243.164 586.551 195.053 602.993 195.053 623.276C195.053 643.558 243.164 660 302.512 660Z" fill="white"/>
<path d="M234.147 604.875C234.147 604.875 222.941 619.32 221.542 624.462C220.144 629.603 224.34 633.238 232.288 632.729C240.237 632.221 245.832 619.32 248.168 616.213C250.505 613.105 256.117 609.508 257.038 602.295C257.959 595.082 236.962 598.679 234.147 604.875Z" fill="white" stroke="#263238" stroke-linecap="round" stroke-linejoin="round"/>
<path d="M257.038 602.295C257.139 601.64 257.011 600.966 256.68 600.412C254.616 606.683 250.369 612.672 248.151 613.595C245.934 614.518 241.601 623.407 235.068 628.04C230.6 631.204 224.63 628.624 221.269 626.646C221.491 630.582 225.517 633.125 232.271 632.692C240.203 632.164 245.814 619.282 248.151 616.175C250.488 613.068 256.117 609.508 257.038 602.295Z" fill="#263238" stroke="#263238" stroke-linecap="round" stroke-linejoin="round"/>
<path d="M368.933 604.875C368.933 604.875 380.156 619.32 381.555 624.462C382.953 629.603 378.74 633.238 370.809 632.729C362.877 632.221 357.163 619.32 354.912 616.213C352.66 613.105 346.98 609.508 346.042 602.295C345.104 595.082 366.135 598.679 368.933 604.875Z" fill="white" stroke="#263238" stroke-linecap="round" stroke-linejoin="round"/>
<path d="M346.042 602.295C345.936 601.637 346.071 600.96 346.417 600.412C348.464 606.683 352.728 612.672 354.946 613.595C357.163 614.518 361.496 623.407 368.029 628.04C372.497 631.204 378.467 628.624 381.828 626.646C381.623 630.582 377.58 633.125 370.843 632.692C362.894 632.164 357.197 619.282 354.946 616.175C352.694 613.068 346.98 609.508 346.042 602.295Z" fill="#263238" stroke="#263238" stroke-linecap="round" stroke-linejoin="round"/>
<path d="M277.694 343.491C277.694 343.491 271.997 385.639 271.519 387.184C271.042 388.728 254.241 482.611 250.966 501.689C247.691 520.767 243.034 539.863 242.557 551.22C242.079 562.576 238.821 591.447 238.821 591.447C237.37 593.823 236.265 596.435 235.546 599.188C235.247 601.117 234.779 603.009 234.147 604.838C237.368 605.78 240.646 606.466 243.955 606.89C248.629 607.418 253.78 604.838 255.639 604.838C257.499 604.838 261.251 589.357 262.65 582.652C264.048 575.948 271.059 543.969 272.458 538.281C273.856 532.594 291.613 455.755 291.613 455.755L307.646 409.162L314.657 406.073L325.249 493.929L342.545 594.084L346.281 608.529C349.593 609.659 353.049 610.187 356.515 610.092C360.728 609.565 368.677 604.442 368.677 604.442C368.677 604.442 369.598 597.738 368.199 595.685C366.8 593.632 363.525 587.944 363.525 587.944C363.525 587.944 360.728 522.424 358.408 507.47C356.089 492.517 353.291 473.929 353.291 473.929C353.291 473.929 349.556 408.427 349.556 392.438C349.556 376.449 342.937 344.056 342.937 344.056C342.937 344.056 309.096 353.02 277.694 343.491Z" fill="#263238" stroke="#263238" stroke-linecap="round" stroke-linejoin="round"/>
<path d="M303.757 351.589L304.235 361.91C304.235 361.91 314.469 363.962 320.115 360.365V350.553L303.757 351.589Z" fill="white" stroke="#263238" stroke-linecap="round" stroke-linejoin="round"/>
<path d="M310.836 369.782L310.256 402.439" stroke="white" stroke-width="0.75" stroke-linecap="round" stroke-linejoin="round"/>
<path d="M311.416 385.15L314.896 381.948L315.476 367.861" stroke="white" stroke-width="0.75" stroke-linecap="round" stroke-linejoin="round"/>
<path d="M283.579 355.695C283.579 355.695 286.479 365.94 282.419 369.782C280.199 371.967 277.647 373.701 274.88 374.905" stroke="white" stroke-width="0.75" stroke-linecap="round" stroke-linejoin="round"/>
<path d="M334.614 355.055C334.614 355.055 337.513 365.3 345.633 366.581" stroke="white" stroke-width="0.75" stroke-linecap="round" stroke-linejoin="round"/>
<path d="M288.867 230.963C288.867 230.963 261.575 225.313 258.164 224.372C254.752 223.43 223.197 194.239 223.197 194.239L201.398 133.653L190.004 137.043C190.004 137.043 192.068 173.993 193.415 184.351C194.763 194.709 201.944 214.955 202.796 216.838C203.649 218.722 207.914 224.372 209.619 224.842C211.325 225.313 231.367 241.792 236.058 244.617C240.748 247.442 259.511 259.684 259.511 259.684C259.511 259.684 268.893 286.05 270.172 291.229C271.451 296.408 277.421 329.837 277.848 333.604C278.274 337.37 276.142 340.195 277.848 343.491C279.553 346.787 291.92 356.203 308.977 356.203C326.034 356.203 341.385 349.612 343.091 343.962C344.797 338.312 342.238 320.891 342.238 319.479C342.238 318.066 343.944 297.35 343.944 297.35C343.944 297.35 352.899 317.595 356.737 324.187C360.574 330.779 366.544 339.724 370.809 339.724C375.073 339.724 429.229 303 429.229 303L426.671 291.229C418.78 295.185 410.471 298.033 401.938 299.704C389.998 301.587 373.794 306.296 373.794 306.296C373.794 306.296 358.016 268.159 356.31 261.096C354.605 254.034 352.046 241.321 349.914 238.967C347.782 236.613 318.785 231.905 314.947 231.905C311.109 231.905 288.867 230.963 288.867 230.963Z" fill="white"/>
<path d="M342.938 343.962C344.643 338.312 342.085 320.891 342.085 319.479C342.085 318.518 342.869 308.668 343.381 302.435L343.142 304.318C343.142 304.318 339.287 323.509 339.287 331.325C339.287 339.14 339.918 348.387 328.337 351.231C316.755 354.075 307.101 341.268 296.798 331.325C286.496 321.381 280.713 310.006 279.434 302.905C278.155 295.805 292.943 312.849 292.943 312.849C292.943 312.849 278.786 290.833 274.283 278.743C269.78 266.652 262.053 238.948 262.053 238.948L262.701 260.267L253.695 246.067C253.695 246.067 251.119 238.948 248.578 232.564C246.036 226.179 242.778 238.948 242.778 238.948C242.778 238.948 227.342 208.401 222.839 204.126C218.335 199.851 225.397 229.004 225.397 229.004C218.451 222.997 211.796 216.591 205.457 209.814C202.054 206.07 198.981 201.978 196.281 197.591C198.839 206.612 202.114 215.652 202.677 216.876C203.53 218.759 207.794 224.409 209.5 224.88C211.206 225.351 231.248 241.83 235.938 244.655C240.629 247.48 259.392 259.721 259.392 259.721C259.392 259.721 268.773 286.088 270.053 291.267C271.332 296.446 277.302 329.874 277.728 333.641C278.155 337.408 276.023 340.233 277.728 343.528C279.434 346.824 291.8 356.241 308.857 356.241C325.915 356.241 341.232 349.612 342.938 343.962Z" fill="#5C33F6"/>
<path d="M372.753 328.538C367.636 327.125 351.517 300.834 351.517 297.99C351.517 295.146 353.445 281.643 353.445 281.643L347.645 288.743L348.942 275.956L346.366 278.799L343.961 297.84C345.223 300.665 353.052 318.217 356.583 324.206C360.421 330.798 366.391 339.743 370.655 339.743C373.333 339.743 395.814 325.185 412.087 314.394C396.77 320.891 375.943 329.329 372.753 328.538Z" fill="#5C33F6"/>
<g opacity="0.5">
<path opacity="0.5" d="M342.938 343.962C344.643 338.312 342.085 320.891 342.085 319.479C342.085 318.518 342.869 308.668 343.381 302.435L343.142 304.318C343.142 304.318 339.287 323.509 339.287 331.325C339.287 339.14 339.918 348.387 328.337 351.231C316.755 354.075 307.101 341.268 296.798 331.325C286.496 321.381 280.713 310.006 279.434 302.905C278.155 295.805 292.943 312.849 292.943 312.849C292.943 312.849 278.786 290.833 274.283 278.743C269.78 266.652 262.053 238.948 262.053 238.948L262.701 260.267L253.695 246.067C253.695 246.067 251.119 238.948 248.578 232.564C246.036 226.179 242.778 238.948 242.778 238.948C242.778 238.948 227.342 208.401 222.839 204.126C218.335 199.851 225.397 229.004 225.397 229.004C218.451 222.997 211.796 216.591 205.457 209.814C202.054 206.07 198.981 201.978 196.281 197.591C198.839 206.612 202.114 215.652 202.677 216.876C203.53 218.759 207.794 224.409 209.5 224.88C211.206 225.351 231.248 241.83 235.938 244.655C240.629 247.48 259.392 259.721 259.392 259.721C259.392 259.721 268.773 286.088 270.053 291.267C271.332 296.446 277.302 329.874 277.728 333.641C278.155 337.408 276.023 340.233 277.728 343.528C279.434 346.824 291.8 356.241 308.857 356.241C325.915 356.241 341.232 349.612 342.938 343.962Z" fill="white"/>
<path opacity="0.5" d="M372.753 328.538C367.636 327.125 351.517 300.834 351.517 297.99C351.517 295.146 353.445 281.643 353.445 281.643L347.645 288.743L348.942 275.956L346.366 278.799L343.961 297.84C345.223 300.665 353.052 318.217 356.583 324.206C360.421 330.798 366.391 339.743 370.655 339.743C373.333 339.743 395.814 325.185 412.087 314.394C396.77 320.891 375.943 329.329 372.753 328.538Z" fill="white"/>
</g>
<path d="M288.867 230.963C288.867 230.963 261.575 225.313 258.164 224.372C254.752 223.43 223.197 194.239 223.197 194.239L201.398 133.653L190.004 137.043C190.004 137.043 192.068 173.993 193.415 184.351C194.763 194.709 201.944 214.955 202.796 216.838C203.649 218.722 207.914 224.372 209.619 224.842C211.325 225.313 231.367 241.792 236.058 244.617C240.748 247.442 259.511 259.684 259.511 259.684C259.511 259.684 268.893 286.05 270.172 291.229C271.451 296.408 277.421 329.837 277.848 333.604C278.274 337.37 276.142 340.195 277.848 343.491C279.553 346.787 291.92 356.203 308.977 356.203C326.034 356.203 341.385 349.612 343.091 343.962C344.797 338.312 342.238 320.891 342.238 319.479C342.238 318.066 343.944 297.35 343.944 297.35C343.944 297.35 352.899 317.595 356.737 324.187C360.574 330.779 366.544 339.724 370.809 339.724C375.073 339.724 429.229 303 429.229 303L426.671 291.229C418.78 295.185 410.471 298.033 401.938 299.704C389.998 301.587 373.794 306.296 373.794 306.296C373.794 306.296 358.016 268.159 356.31 261.096C354.605 254.034 352.046 241.321 349.914 238.967C347.782 236.613 318.785 231.905 314.947 231.905C311.109 231.905 288.867 230.963 288.867 230.963Z" stroke="#263238" stroke-linecap="round" stroke-linejoin="round"/>
<path d="M419.302 295.334L423.362 306.729" stroke="#263238" stroke-linecap="round" stroke-linejoin="round"/>
<path d="M190.413 145.593L203.786 141.506" stroke="#263238" stroke-linecap="round" stroke-linejoin="round"/>
<path d="M283.749 309.12C283.749 309.12 306.777 338.312 330.656 344.903" stroke="#263238" stroke-linecap="round" stroke-linejoin="round"/>
<path d="M348.157 265.654L348.907 260.154" stroke="#263238" stroke-linecap="round" stroke-linejoin="round"/>
<path d="M343.79 297.35L347.424 270.964" stroke="#263238" stroke-linecap="round" stroke-linejoin="round"/>
<path d="M344.217 293.112L352.745 272.396" stroke="#263238" stroke-linecap="round" stroke-linejoin="round"/>
<path d="M253.303 227.912L252.535 223.901" stroke="#263238" stroke-linecap="round" stroke-linejoin="round"/>
<path d="M259.358 259.684L254.343 233.393" stroke="#263238" stroke-linecap="round" stroke-linejoin="round"/>
<path d="M242.949 220.04L240.595 214.484" stroke="#263238" stroke-linecap="round" stroke-linejoin="round"/>
<path d="M258.505 256.858L244.876 224.597" stroke="#263238" stroke-linecap="round" stroke-linejoin="round"/>
<path d="M222.344 196.592C222.344 196.592 226.608 215.425 232.152 224.842" stroke="#263238" stroke-linecap="round" stroke-linejoin="round"/>
<path d="M379.61 319.008L373.64 306.296L385.154 316.654" stroke="#263238" stroke-linecap="round" stroke-linejoin="round"/>
<path d="M297.736 249.796L305.838 263.921L304.559 343.491L313.088 357.615L320.337 337.37L308.397 262.508L313.514 251.208L306.691 238.496L297.736 249.796Z" fill="#263238" stroke="#263238" stroke-linecap="round" stroke-linejoin="round"/>
<path d="M295.382 222.695C295.382 222.695 289.975 222.375 288.287 224.88C287.088 227.088 286.311 229.542 286.001 232.093C286.001 232.093 288.56 242.112 289.139 245.879C289.719 249.646 291.681 259.062 291.681 259.062L306.452 247.461L323.202 258.12C323.202 258.12 320.081 237.743 318.938 231.17C317.795 224.598 314.964 223.016 310.137 222.394C305.218 222.108 300.288 222.209 295.382 222.695Z" fill="white" stroke="#263238" stroke-linecap="round" stroke-linejoin="round"/>
<path d="M289.412 209.21C289.412 209.21 292.534 225.821 293.677 228.947C294.819 232.074 304.457 247.442 306.452 247.442C308.448 247.442 314.691 230.492 314.981 227.704C315.271 224.917 315.271 218.288 315.271 218.288C315.271 218.288 305.617 221.113 301.079 217.666C296.542 214.22 292.551 205.764 290.845 205.764C289.139 205.764 289.412 209.21 289.412 209.21Z" fill="white"/>
<path d="M301.062 217.666C296.508 214.22 292.534 205.764 290.828 205.764C289.122 205.764 289.412 209.21 289.412 209.21C289.412 209.21 291.118 218.024 292.414 224.032C295.588 227.358 299.582 229.573 303.894 230.398C307.813 230.728 311.722 229.622 315.015 227.252C315.254 224.239 315.254 218.288 315.254 218.288C315.254 218.288 305.6 221.188 301.062 217.666Z" fill="#5C33F6"/>
<path opacity="0.5" d="M301.062 217.666C296.508 214.22 292.534 205.764 290.828 205.764C289.122 205.764 289.412 209.21 289.412 209.21C289.412 209.21 291.118 218.024 292.414 224.032C295.588 227.358 299.582 229.573 303.894 230.398C307.813 230.728 311.722 229.622 315.015 227.252C315.254 224.239 315.254 218.288 315.254 218.288C315.254 218.288 305.6 221.188 301.062 217.666Z" fill="white"/>
<path d="M289.412 209.21C289.412 209.21 292.534 225.821 293.677 228.947C294.819 232.074 304.457 247.442 306.452 247.442C308.448 247.442 314.691 230.492 314.981 227.704C315.271 224.917 315.271 218.288 315.271 218.288C315.271 218.288 305.617 221.113 301.079 217.666C296.542 214.22 292.551 205.764 290.845 205.764C289.139 205.764 289.412 209.21 289.412 209.21Z" stroke="#263238" stroke-linecap="round" stroke-linejoin="round"/>
<path d="M323.202 171.902C323.202 171.902 324.055 187.27 324.908 194.163C325.761 201.056 326.034 209.23 322.912 214.541C319.791 219.851 316.67 223.317 310.137 224.258C303.604 225.2 295.382 220.812 292.824 216.424C290.265 212.036 287.997 207.648 287.997 207.648C286.114 207.582 284.27 207.041 282.607 206.066C280.048 204.503 277.779 197.289 278.632 194.464C279.485 191.64 283.749 191.338 283.749 191.338C283.749 191.338 281.771 181.62 280.628 175.029C280.038 171.591 280.648 168.035 282.334 165.073C284.02 162.111 286.658 159.962 289.719 159.058C296.815 156.535 307.322 156.855 312.712 160C318.102 163.145 321.787 166.573 323.202 171.902Z" fill="white"/>
<path d="M300.67 172.825C304.644 175.97 311.655 185.199 323.902 182.882C323.492 177.232 323.202 171.902 323.202 171.902C321.787 166.573 318.085 163.126 312.695 159.981C307.305 156.836 296.798 156.535 289.702 159.058C287.966 159.61 286.351 160.553 284.96 161.827C283.568 163.1 282.43 164.678 281.617 166.46L286.291 170.641C286.291 170.641 296.167 169.285 300.67 172.825Z" fill="#5C33F6"/>
<path opacity="0.5" d="M300.67 172.825C304.644 175.97 311.655 185.199 323.902 182.882C323.492 177.232 323.202 171.902 323.202 171.902C321.787 166.573 318.085 163.126 312.695 159.981C307.305 156.836 296.798 156.535 289.702 159.058C287.966 159.61 286.351 160.553 284.96 161.827C283.568 163.1 282.43 164.678 281.617 166.46L286.291 170.641C286.291 170.641 296.167 169.285 300.67 172.825Z" fill="white"/>
<path d="M323.202 171.902C323.202 171.902 324.055 187.27 324.908 194.163C325.761 201.056 326.034 209.23 322.912 214.541C319.791 219.851 316.67 223.317 310.137 224.258C303.604 225.2 295.382 220.812 292.824 216.424C290.265 212.036 287.997 207.648 287.997 207.648C286.114 207.582 284.27 207.041 282.607 206.066C280.048 204.503 277.779 197.289 278.632 194.464C279.485 191.64 283.749 191.338 283.749 191.338C283.749 191.338 281.771 181.62 280.628 175.029C280.038 171.591 280.648 168.035 282.334 165.073C284.02 162.111 286.658 159.962 289.719 159.058C296.815 156.535 307.322 156.855 312.712 160C318.102 163.145 321.787 166.573 323.202 171.902Z" stroke="#263238" stroke-linecap="round" stroke-linejoin="round"/>
<path d="M319.228 179.116C318.215 178.971 317.185 179.064 316.206 179.388C315.227 179.713 314.322 180.262 313.548 180.999C310.99 183.504 314.691 195.406 314.691 197.29C314.691 199.173 309.284 200.736 309.284 200.736" stroke="#263238" stroke-linecap="round" stroke-linejoin="round"/>
<path d="M314.691 209.211C314.691 209.211 307.084 211.094 304.082 206.084" stroke="#263238" stroke-linecap="round" stroke-linejoin="round"/>
<path d="M304.218 182.882C303.504 182.322 302.692 181.933 301.834 181.739C300.976 181.546 300.091 181.552 299.235 181.758C298.38 181.963 297.572 182.364 296.865 182.933C296.157 183.503 295.565 184.23 295.127 185.067" stroke="#263238" stroke-linecap="round" stroke-linejoin="round"/>
<path d="M303.45 191.752C303.621 193.108 303.058 194.332 302.205 194.445C301.352 194.558 300.5 193.56 300.363 192.185C300.227 190.811 300.755 189.605 301.608 189.473C302.461 189.342 303.297 190.377 303.45 191.752Z" fill="#263238"/>
<path d="M319.075 189.869C319.228 191.244 318.665 192.449 317.812 192.562C316.96 192.675 316.107 191.677 315.97 190.302C315.834 188.928 316.38 187.722 317.232 187.59C318.085 187.459 318.904 188.494 319.075 189.869Z" fill="#263238"/>
<path d="M297.361 195.726L301.625 195.406" stroke="#263238" stroke-width="0.5" stroke-linecap="round" stroke-linejoin="round"/>
<path d="M322.35 191.96L317.812 193.542" stroke="#263238" stroke-width="0.5" stroke-linecap="round" stroke-linejoin="round"/>
<path d="M282.044 187.572L286.018 201.056C286.542 201.153 287.079 201.051 287.544 200.767C288.008 200.483 288.372 200.034 288.577 199.493C289.157 197.61 285.455 189.775 286.018 188.834C286.581 187.892 290.572 186.329 289.992 182.883C289.412 179.436 286.308 173.786 286.308 170.641C286.308 167.496 291.988 164.991 295.109 164.991C298.231 164.991 302.768 168.758 306.469 172.204C310.171 175.651 309.591 169.681 309.591 169.681C309.591 169.681 320.661 175.952 326.904 174.088C333.147 172.223 326.631 160.904 326.631 160.904C326.631 160.904 334 154.953 330.878 148.682C327.757 142.41 311.297 139.265 297.958 142.41C284.619 145.555 279.758 150.904 278.632 153.39C277.928 154.97 277.445 156.659 277.2 158.4C273.411 160.848 270.579 164.76 269.251 169.379C267.545 176.592 274.368 182.562 277.2 183.485C279.143 184.293 280.827 185.714 282.044 187.572Z" fill="#263238" stroke="#263238" stroke-linecap="round" stroke-linejoin="round"/>
<path d="M316.056 155.575C309.761 152.768 301.096 150.057 295.075 152.58C284.551 157.025 287.059 163.108 287.059 163.108C287.059 163.108 301.506 155.273 309.574 169.699" stroke="white" stroke-width="0.75" stroke-linecap="round" stroke-linejoin="round"/>
<path d="M324.158 159.774C324.158 159.774 322.776 158.926 320.559 157.759" stroke="white" stroke-width="0.75" stroke-linecap="round" stroke-linejoin="round"/>
<path d="M426.517 291.229C426.517 291.229 428.649 281.812 430.355 279.458C432.061 277.104 435.899 275.692 437.178 272.867C438.457 270.042 440.163 266.275 441.442 268.158C442.051 268.898 442.45 269.818 442.59 270.806C442.729 271.794 442.603 272.805 442.227 273.714C441.505 275.616 440.47 277.353 439.174 278.837C438.384 279.741 437.8 280.838 437.468 282.038C437.462 282.436 437.362 282.826 437.178 283.168L462.576 272.264C462.952 272.457 463.281 272.749 463.533 273.113C463.786 273.477 463.955 273.903 464.026 274.354C464.316 275.955 462.439 276.916 461.569 277.236C460.7 277.556 450.107 282.886 450.107 282.886L451.267 284.957L467.642 282.961C468.105 282.937 468.559 283.105 468.916 283.432C469.273 283.759 469.506 284.221 469.57 284.728C469.634 285.235 469.525 285.75 469.263 286.172C469 286.594 468.605 286.893 468.154 287.01L451.983 290.099L451.557 292.17L469.33 294.054C469.755 294.128 470.139 294.377 470.405 294.751C470.671 295.125 470.799 295.595 470.763 296.069C470.709 296.493 470.516 296.881 470.221 297.158C469.925 297.436 469.548 297.584 469.16 297.576L451.403 297.293C454.354 299.176 455.514 299.817 458.516 301.606C463.633 304.657 465.049 306.446 461.262 306.258C459.961 305.977 458.694 305.522 457.493 304.902L449.63 302.171C449.63 302.171 446.218 302.491 443.25 302.962C440.282 303.433 436.427 304.412 434.824 304.412C432.877 304.155 430.954 303.714 429.076 303.094L426.517 291.229Z" fill="white" stroke="#263238" stroke-linecap="round" stroke-linejoin="round"/>
<path d="M437.144 283.169V289.741C437.144 291.625 435.694 293.263 432.948 294.224" stroke="#263238" stroke-linecap="round" stroke-linejoin="round"/>
<path d="M200.426 133.615C200.426 133.615 206.754 126.891 207.76 124.085C208.766 121.279 207.965 116.91 209.466 114.273C210.967 111.636 213.167 108.133 211.035 107.851C210.154 107.632 209.235 107.704 208.391 108.059C207.548 108.414 206.818 109.036 206.293 109.847C205.16 111.488 204.31 113.346 203.786 115.328C203.469 116.552 202.883 117.671 202.08 118.586C201.773 118.793 201.52 119.085 201.347 119.433L197.253 89.677C196.932 89.4434 196.567 89.2932 196.186 89.2377C195.805 89.1823 195.417 89.223 195.053 89.3569C193.637 89.8653 193.824 92.163 194.012 93.1235C194.2 94.084 195.325 106.909 195.325 106.909H193.108L186.524 90.1478C186.326 89.6719 185.97 89.2985 185.529 89.1053C185.089 88.912 184.598 88.9139 184.158 89.1104C183.719 89.3069 183.365 89.683 183.17 90.1604C182.975 90.6378 182.955 91.1797 183.113 91.6733L188.741 108.623L187.326 110.092L176.972 94.0086C176.721 93.6846 176.372 93.4715 175.99 93.4087C175.608 93.3458 175.218 93.4374 174.892 93.6665C174.567 93.8956 174.327 94.2469 174.217 94.6558C174.107 95.0647 174.134 95.5036 174.294 95.8919L183.368 112.842C180.418 110.958 179.343 110.167 176.443 108.19C171.514 104.838 169.382 104.423 171.429 107.87C172.294 108.978 173.279 109.964 174.362 110.808L180.469 116.891C180.469 116.891 181.953 120.394 183.027 123.407C184.102 126.42 185.279 130.658 186.081 132.183C187.257 133.921 188.563 135.547 189.987 137.042L200.426 133.615Z" fill="white" stroke="#263238" stroke-linecap="round" stroke-linejoin="round"/>
<path d="M201.466 119.49L196.349 122.748C194.831 123.709 194.302 125.912 194.916 129.02" stroke="#263238" stroke-linecap="round" stroke-linejoin="round"/>
</svg>
